<?xml version="1.0" standalone="no"?>
<!DOCTYPE svg PUBLIC "-//W3C//DTD SVG 1.1//EN" "http://www.w3.org/Graphics/SVG/1.1/DTD/svg11.dtd" >
<svg xmlns="http://www.w3.org/2000/svg">
<metadata>
<json>
<![CDATA[
{
	"fontFamily": "icons-withSIX",
	"designer": "Sven 'ParaGraphic L' van Gurp",
	"majorVersion": 2,
	"minorVersion": 16,
	"description": "all icons used in withSIX apps\nFont generated by IcoMoon.",
	"copyright": "Sven \"ParaGraphic L\" van Gurp",
	"fontURL": "http://withSIX.com",
	"designerURL": "http://sven.sesil.nl",
	"version": "Version 2.16",
	"fontId": "icons-withSIX",
	"psName": "icons-withSIX",
	"subFamily": "Regular",
	"fullName": "icons-withSIX"
}
]]>
</json>
</metadata>
<defs>
<font id="icons-withSIX" horiz-adv-x="1024">
<font-face units-per-em="1024" ascent="960" descent="-64" />
<missing-glyph horiz-adv-x="1024" />
<glyph unicode="&#x20;" horiz-adv-x="512" d="" />
<glyph unicode="&#xe600;" glyph-name="X" data-tags="X" d="M1024 128l-192-192-320 320-320-320-192 192 320 320-320 320 192 192 320-320 320 320 192-192-320-320z" />
<glyph unicode="&#xe601;" glyph-name="Verified" data-tags="Verified" d="M957.44 576v128l-107.52 81.92-81.92 107.52h-128l-128 66.56-128-66.56h-128l-81.92-107.52-107.52-81.92v-128l-66.56-128 66.56-128v-128l107.52-81.92 81.92-107.52h128l128-66.56 128 66.56h128l81.92 107.52 107.52 81.92v128l66.56 128-66.56 128zM450.56 222.72l-225.28 225.28 97.28 97.28 128-128 256 256 97.28-97.28-353.28-353.28z" />
<glyph unicode="&#xe602;" glyph-name="Users-Group-Join" data-tags="Users-Group-Join" d="M1024 432.165c-41.705 26.986-83.415 53.97-125.125 80.956-31.587 34.237 17.78 16.424 35.507 46.961l34.205 58.682 1.792 3.128 0.654 3.519c0.5 2.66 0.922 5.363 1.308 8.056 8.287 5.902 14.34 16.956 14.34 29.457 0 12.178-6.038 23.583-14.191 30.004-0.425 3.004-0.909 5.998-1.463 8.968l-0.66 3.5-1.802 3.080-34.213 58.71c-7.337 12.635-24.347 20.431-36.538 20.431h-96.559c-12.189 0-29.201-7.796-36.564-20.488l-6.587-11.387-26.591 7.908 10.834-28.344h-12.617l9.267-12.447-9.8-16.763-0.658-3.447c-0.419-2.189-0.759-4.401-1.103-6.615-9.213-5.4-15.169-19.571-15.169-33.106 0-13.358 7.26-25.044 14.988-30.583 0.44-2.884 0.911-5.764 1.468-8.616l0.676-3.424 1.766-3.014 33.577-57.37c5.165-8.895 16.268-14.158 26.326-18.58-23.784 5.906-48.655 9.060-74.267 9.060-37.073 0-72.611-6.569-105.516-18.602-8.48 5.487-16.961 10.975-25.441 16.461-47.378 51.356 26.67 24.639 53.262 70.44l51.308 88.023 2.691 4.691 0.978 5.28c0.753 3.99 1.38 8.045 1.965 12.084 12.425 8.855 21.508 25.435 21.508 44.183 0 18.267-9.055 35.375-21.288 45.007-0.637 4.506-1.359 9-2.193 13.454l-0.989 5.248-2.702 4.621-51.32 88.065c-11.009 18.952-36.522 30.644-54.807 30.644h-144.837c-18.282 0-43.803-11.693-54.848-30.729l-9.878-17.080-39.892 12.26 16.255-42.116h-18.927l13.902-19.071-12.042-20.804-2.665-4.637-0.983-5.221c-0.627-3.284-1.133-6.628-1.655-9.947-13.818-8.097-22.755-29.371-22.755-49.674 0-20.036 10.893-37.574 22.484-45.876 0.66-4.33 1.367-8.652 2.2-12.929l1.015-5.137 2.652-4.525 50.365-86.057c21.61-37.216 112.503-32.027 45.448-75.416-42.126-27.254-84.252-54.509-126.378-81.765-26.711 17.283-53.421 34.564-80.132 51.846-31.588 34.237 17.779 16.424 35.507 46.961l34.203 58.682 1.793 3.128 0.654 3.519c0.498 2.66 0.92 5.363 1.307 8.056 8.287 5.902 14.341 16.956 14.341 29.457 0 12.178-6.038 23.583-14.191 30.004-0.428 3.004-0.909 5.998-1.464 8.968l-0.662 3.5-1.802 3.080-34.212 58.71c-7.336 12.635-24.347 20.431-36.536 20.431h-96.557c-12.188 0-29.201-7.796-36.563-20.488l-6.587-11.387-26.591 7.908 10.834-28.344h-12.617l9.267-12.447-9.802-16.762-0.658-3.447c-0.419-2.189-0.758-4.401-1.103-6.615-9.213-5.4-15.171-19.571-15.171-33.106 0-13.358 7.263-25.044 14.99-30.583 0.439-2.884 0.91-5.764 1.467-8.616l0.675-3.424 35.345-60.384c14.408-24.812 75.004-21.354 30.299-50.278-39.917-25.827-79.834-51.652-119.749-77.478 24.456-70.348 191.185-87.75 286.051-52.216 32.252-25.361 81.056-42.445 135.62-51.252-7.85-27.142-12.070-55.825-12.070-85.496 0-169.661 137.539-307.2 307.2-307.2s307.2 137.539 307.2 307.2c0 53.722-13.805 104.212-38.038 148.146 18.682 10.685 32.291 24.288 38.038 40.819zM681.228 76.8l-71.899 72.036 94.184 94.364-94.184 94.364 71.899 72.036 166.084-166.4-166.084-166.4z" />
<glyph unicode="&#xe603;" glyph-name="Users-Group-Add" data-tags="Users-Group-Add" d="M1024 432.165c-41.705 26.986-83.415 53.97-125.125 80.956-31.587 34.237 17.78 16.424 35.507 46.961l34.205 58.682 1.791 3.128 0.654 3.519c0.5 2.66 0.922 5.363 1.308 8.056 8.287 5.902 14.34 16.956 14.34 29.457 0 12.178-6.038 23.583-14.191 30.004-0.425 3.004-0.909 5.998-1.463 8.968l-0.66 3.5-1.802 3.080-34.213 58.71c-7.337 12.635-24.347 20.431-36.538 20.431h-96.559c-12.188 0-29.201-7.796-36.563-20.488l-6.587-11.387-26.591 7.908 10.834-28.344h-12.617l9.267-12.447-9.8-16.763-0.658-3.447c-0.419-2.189-0.759-4.401-1.103-6.615-9.213-5.4-15.169-19.571-15.169-33.106 0-13.358 7.26-25.044 14.988-30.583 0.44-2.884 0.911-5.764 1.467-8.616l0.676-3.424 1.766-3.014 33.577-57.37c5.165-8.895 16.268-14.158 26.326-18.58-23.782 5.906-48.653 9.060-74.266 9.060-37.073 0-72.611-6.568-105.516-18.602-8.481 5.487-16.963 10.975-25.443 16.461-47.378 51.356 26.67 24.639 53.262 70.44l51.308 88.023 2.691 4.691 0.978 5.28c0.753 3.99 1.38 8.045 1.965 12.084 12.425 8.855 21.508 25.435 21.508 44.183 0 18.267-9.055 35.375-21.288 45.007-0.637 4.506-1.361 9-2.193 13.454l-0.989 5.248-2.702 4.621-51.32 88.065c-11.008 18.952-36.521 30.644-54.806 30.644h-144.837c-18.282 0-43.803-11.693-54.848-30.729l-9.878-17.080-39.892 12.26 16.255-42.116h-18.927l13.902-19.071-12.042-20.804-2.665-4.637-0.983-5.221c-0.627-3.284-1.133-6.628-1.655-9.947-13.818-8.097-22.755-29.371-22.755-49.674 0-20.036 10.893-37.574 22.484-45.876 0.66-4.33 1.367-8.652 2.2-12.929l1.015-5.137 2.652-4.525 50.365-86.057c21.61-37.216 112.503-32.027 45.448-75.416-42.125-27.254-84.252-54.509-126.377-81.765-26.711 17.283-53.421 34.564-80.133 51.846-31.588 34.237 17.779 16.424 35.507 46.961l34.203 58.682 1.793 3.128 0.654 3.519c0.498 2.66 0.92 5.363 1.307 8.056 8.287 5.902 14.341 16.956 14.341 29.457 0 12.178-6.038 23.583-14.191 30.004-0.428 3.004-0.909 5.998-1.464 8.968l-0.662 3.5-1.802 3.080-34.212 58.71c-7.336 12.635-24.347 20.431-36.536 20.431h-96.557c-12.188 0-29.201-7.796-36.563-20.488l-6.587-11.387-26.591 7.908 10.834-28.344h-12.617l9.267-12.447-9.802-16.762-0.658-3.447c-0.419-2.189-0.758-4.401-1.103-6.615-9.213-5.4-15.171-19.571-15.171-33.106 0-13.358 7.263-25.044 14.99-30.583 0.439-2.884 0.91-5.764 1.467-8.616l0.675-3.424 35.345-60.384c14.408-24.812 75.004-21.354 30.299-50.278-39.917-25.827-79.834-51.652-119.749-77.478 24.454-70.348 191.185-87.75 286.051-52.216 32.252-25.361 81.056-42.445 135.62-51.252-7.85-27.142-12.070-55.825-12.070-85.496 0-169.661 137.537-307.2 307.2-307.2 169.661 0 307.2 137.539 307.2 307.2 0 53.722-13.805 104.212-38.038 148.146 18.682 10.685 32.292 24.288 38.038 40.819zM870.4 191.679h-103.68v-102.079l-101.375-1.23v103.309h-102.145v102.944h102.145v102.177h101.375v-102.177h103.68v-102.944z" />
<glyph unicode="&#xe604;" glyph-name="Users-Group" data-tags="Users-Group" d="M898.875 320.291c-31.588 34.237 17.78 16.424 35.507 46.961l34.205 58.682 1.791 3.128 0.654 3.519c0.5 2.66 0.922 5.363 1.308 8.056 8.287 5.902 14.34 16.956 14.34 29.457 0 12.178-6.038 23.583-14.19 30.004-0.426 3.004-0.91 5.998-1.464 8.968l-0.66 3.5-1.802 3.080-34.213 58.71c-7.337 12.635-24.347 20.431-36.538 20.431h-96.559c-12.188 0-29.201-7.796-36.563-20.488l-6.587-11.387-26.591 7.908 10.834-28.344h-12.617l9.268-12.447-9.801-16.763-0.658-3.447c-0.419-2.189-0.759-4.401-1.103-6.615-9.213-5.4-15.169-19.571-15.169-33.106 0-13.358 7.26-25.044 14.988-30.583 0.44-2.884 0.911-5.764 1.467-8.616l0.676-3.424 1.766-3.014 33.578-57.37c14.406-24.812 75.003-21.354 30.299-50.278-24.92-16.122-49.839-32.243-74.757-48.366-44.814 28.995-89.627 57.99-134.442 86.984-47.378 51.356 26.67 24.639 53.262 70.44l51.308 88.023 2.691 4.691 0.978 5.28c0.753 3.99 1.38 8.045 1.965 12.084 12.425 8.855 21.508 25.435 21.508 44.183 0 18.267-9.055 35.375-21.288 45.007-0.637 4.506-1.361 9-2.193 13.454l-0.989 5.248-2.702 4.621-51.32 88.065c-11.008 18.953-36.52 30.644-54.804 30.644h-144.837c-18.282 0-43.803-11.693-54.848-30.729l-9.876-17.082-39.892 12.26 16.255-42.116h-18.927l13.902-19.071-12.042-20.804-2.665-4.637-0.983-5.221c-0.627-3.284-1.133-6.628-1.655-9.947-13.818-8.097-22.755-29.371-22.755-49.674 0-20.036 10.893-37.574 22.484-45.876 0.66-4.33 1.367-8.652 2.2-12.929l1.015-5.137 2.652-4.525 50.365-86.057c21.61-37.216 112.503-32.027 45.448-75.416-42.125-27.254-84.252-54.509-126.377-81.765-26.711 17.283-53.421 34.564-80.133 51.846-31.588 34.237 17.779 16.424 35.507 46.961l34.204 58.682 1.792 3.128 0.654 3.519c0.499 2.66 0.92 5.363 1.308 8.056 8.285 5.902 14.34 16.956 14.34 29.457 0 12.178-6.038 23.583-14.191 30.004-0.426 3.004-0.909 5.998-1.464 8.968l-0.66 3.5-1.804 3.080-34.212 58.71c-7.336 12.635-24.348 20.431-36.536 20.431h-96.558c-12.188 0-29.201-7.796-36.563-20.488l-6.587-11.387-26.591 7.908 10.834-28.344h-12.617l9.267-12.447-9.801-16.763-0.658-3.447c-0.419-2.189-0.758-4.401-1.103-6.615-9.213-5.4-15.171-19.571-15.171-33.106 0-13.358 7.261-25.044 14.99-30.583 0.439-2.884 0.91-5.764 1.467-8.616l0.675-3.424 35.345-60.384c14.408-24.812 75.004-21.354 30.299-50.278-39.918-25.825-79.835-51.652-119.75-77.478 24.454-70.348 191.185-87.75 286.051-52.216 98.819-77.708 353.085-77.708 451.901 0 94.866-35.534 261.594-18.131 286.049 52.216-41.706 26.986-83.416 53.971-125.126 80.957z" />
<glyph unicode="&#xe605;" glyph-name="Users-Friends" data-tags="Users-Friends" d="M248.463 325.454c62.719 67.985-35.306 32.616-70.509 93.248l-67.921 116.524-3.561 6.211-1.294 6.99c-0.995 5.283-1.827 10.65-2.601 15.999-16.448 11.721-28.472 33.67-28.472 58.488 0 24.183 11.987 46.829 28.18 59.58 0.845 5.964 1.801 11.916 2.903 17.81l1.311 6.948 3.578 6.117 67.937 116.58c14.572 25.089 48.346 40.567 72.55 40.567h191.735c24.202 0 57.987-15.479 72.607-40.678l13.075-22.61 52.809 16.23-21.518-55.754h25.056l-18.404-25.247 15.942-27.54 3.528-6.14 1.3-6.911c0.831-4.348 1.499-8.773 2.19-13.169 18.292-10.719 30.124-38.881 30.124-65.757 0-26.524-14.419-49.742-29.765-60.731-0.874-5.733-1.81-11.452-2.912-17.115l-1.344-6.799-3.511-5.992-66.674-113.923c-28.608-49.266-148.931-42.397-60.164-99.835 55.766-36.078 111.533-72.159 167.3-108.241 35.36 22.877 70.719 45.755 106.079 68.634 41.815 45.322-23.535 21.741-47.005 62.164l-45.28 77.682-2.373 4.141-0.865 4.659c-0.66 3.521-1.219 7.1-1.733 10.664-10.967 7.813-18.984 22.447-18.984 38.995 0 16.12 7.994 31.218 18.787 39.72 0.564 3.976 1.203 7.94 1.938 11.871l0.874 4.634 2.386 4.078 45.29 77.72c9.711 16.726 32.232 27.046 48.366 27.046h127.827c16.134 0 38.653-10.321 48.402-27.121l8.719-15.072 35.201 10.468-14.341-37.521h16.703l-12.268-16.476 12.975-22.193 0.869-4.563c0.554-2.898 1.004-5.824 1.462-8.756 12.197-7.149 20.082-25.908 20.082-43.826 0-17.682-9.613-33.155-19.844-40.485-0.581-3.817-1.203-7.63-1.943-11.406l-0.893-4.532-46.79-79.937c-19.071-32.845-99.288-28.268-40.108-66.559 52.844-34.185 105.687-68.374 158.527-102.563-32.374-93.126-253.089-116.164-378.671-69.124-153.267-120.527-589.047-99.848-645.327 62.052 82.82 53.585 165.641 107.171 248.463 160.756z" />
<glyph unicode="&#xe606;" glyph-name="User-Remote" data-tags="User-Remote" d="M561.093 364.847l10.144 17.403c43.331-23.374 92.902-36.65 145.564-36.65 169.496 0 307.199 137.608 307.199 307.2s-137.702 307.2-307.199 307.2c-91.054 0-172.87-39.677-229.137-102.661-1.964 0.168-3.891 0.261-5.761 0.261h-209.111c-26.394 0-63.236-16.882-79.183-44.367l-14.262-24.658-57.591 17.445 23.466-61.060h-27.324l20.068-27.278-17.385-29.907-3.844-6.636-1.418-7.505c-0.911-4.745-1.641-9.553-2.391-14.348-19.953-11.69-32.852-42.395-32.852-71.707 0-28.925 15.724-54.243 32.462-66.227 0.947-6.25 1.971-12.488 3.177-18.662l1.462-7.415 3.827-6.534 72.719-124.244c31.196-53.731 162.427-46.24 65.613-108.881-86.447-55.928-172.892-111.858-259.336-167.789 70.373-202.435 684.805-202.437 755.173 0-90.324 58.437-180.646 116.881-270.972 175.32-68.406 74.145 38.501 35.572 76.892 101.7zM610.298 449.257l24.873 42.67 3.882 6.775 1.416 7.622c1.080 5.76 1.99 11.615 2.831 17.448 1.855 1.321 3.654 2.769 5.398 4.32 33.77-25.473 54.13-63.29 58.208-105.102-35.511 1.501-68.056 10.952-96.608 26.267zM733.327 618.068c-33.276 13.418-53.988 31.374-81.876 27.278-2.481 2.633-5.1 5.042-7.831 7.194-0.552 3.898-1.165 7.782-1.812 11.658 8.105-1.77 16.508-2.852 17.443-3.246 18.033-7.621 29.94 28.923 54.947-13.396-1.326 7.178 0.49 25.459-3.648 37.59 12.1-13.864 19.267-27.267 28.772-41.686 8.508 23.533 21.563 41.276 42.533 53.807 5.179-4.188 12.41-15.073 16.065-20.445-17.056-2.816-29.268-13.28-45.624-17.194 10.248-16.922 18.664-8.863 33.010-9.43-4.422-28.076-41.222-32.333-51.977-32.129zM867.469 632.727c-1.757-0.544-11.007-17.052-14.212-19.54-4.5 4.667-13.572 23.913-17.468 26.195 15.843-4.942 25.111-3.281 40.332-4.692 27.045 13.896 41.605 20.212 57.201-13.185 7.137 15.77 13.082 38.189 12.973 57.582 11.588-101.939-48.032-201.802-143.721-239.941 17.644 30.086 47.597 77.037 58.691 124.449-41.449-20.595-68.012 21.464-80.791 58.336 22.748-17.531 41.891-39.823 53.216-62.341 30.493 17.274 49 44.827 33.78 73.138zM613.613 851.037c-10.246-10.248-14.116-15.345-22.607-23.776 39.105 9.806 31.928 16 23.718 31.62 13.202 9.105 22.419 10.694 19.268-5.436 26.803-6.235 18.322-13.192-9.549-23.468 2.002-4.242 3.996-8.477 5.996-12.718-10.876-5.823-17.856-6.367-30.867-18.222 48.054-13.4 75.876 18.383 98.948 50.815-18.568 6.061-16.12 11.601-41.878 15.514 33.527 28.365 96.369 19.393 139.402 3.707-14.783 0.070-10.214-8.475-2.734-18.106-11.466-0.064-6.708 12.878-20.028 3.284 12.214-18.427 7.122-17.285 24.056-28.205-2.737-14.9-3.272-13.522 5.224-24.104-7.165 6.012-14.333 12.029-21.495 18.048-1.032-8.178 4.105-16.521 13.661-18.048-15.516-9.128-24.402-3.281-28.266 13.468 1.32-14.181-0.815-30.925-2.135-39.649-41.001 28.191-96.014-24.25-53.777-51.018 2.999 10.294 14.605 27.876 19.907 38.627 0.572 1.466 1.277 3.116 2.145 4.987-0.461-1.396-1.208-3.086-2.145-4.987-7.459-19.16 9.097-5.6 15.803-14.515-14.255-20.863-29.9-35.547-45.242-18.092-8.123-4.431-17.884-9.857-27.479-14.966 0.006-0.018 0.010-0.036 0.015-0.055-1.199-0.957-2.573-1.624-4.022-2.062-6.442-3.38-12.695-6.529-18.194-9.034-0.868-4.613 4.969-14.371 7.235-21.59-8.209-1.55-14.552-3.018-19.38-4.406l-0.168 0.887-3.903 6.673-64.059 109.925c8.095 14.061 14.254 27.208 17.027 38.616-6.578-1.888-13.153-3.781-19.735-5.669 13.407 24.541 28.486 31.864 45.258 21.955zM721.007 842.975c-3.745-9.883-20.945 1.449-6.938-16.069 12.818 5.048 3.036 5.784 6.938 16.069zM666.348 717.701c1.416 0.744 2.843 1.499 4.271 2.259-3.309 12.509-4.419 20.79-7.108 32.17-8.236-12.273-8.797-21.64-12.096-28.897-5.197-2.828 6.163-8.186 14.932-5.532zM647.345 724.404c-10.501 9.996-8.046 7.656 0 0v0z" />
<glyph unicode="&#xe607;" glyph-name="User-Join" data-tags="User-Join" d="M716.8 550.4c-107.192 0-201.545-54.915-256.507-138.134-9.96 6.444-19.921 12.888-29.88 19.333-60.803 65.905 34.227 31.62 68.352 90.399l65.846 112.961 3.45 6.021 1.258 6.775c0.96 5.12 1.77 10.326 2.516 15.508 15.953 11.364 27.606 32.64 27.606 56.701 0 23.442-11.625 45.398-27.32 57.759-0.82 5.783-1.75 11.549-2.816 17.265l-1.27 6.735-3.469 5.932-65.86 113.018c-14.125 24.321-46.862 39.327-70.33 39.327h-185.88c-23.461 0-56.21-15.005-70.386-39.437l-12.676-21.919-51.194 15.507 20.859-54.276h-24.287l17.837-24.247-18.87-32.483-1.26-6.67c-0.81-4.218-1.46-8.493-2.126-12.753-17.734-10.391-29.202-37.686-29.202-63.741 0-25.711 13.978-48.216 28.856-58.87 0.842-5.555 1.752-11.1 2.824-16.589l1.299-6.591 3.406-5.809 64.635-110.438c27.731-47.761 144.38-41.102 58.322-96.782-76.841-49.714-153.678-99.429-230.52-149.146 37.482-107.82 248.593-151.030 425.257-129.64 40.636-122.083 155.796-210.118 291.529-210.118 169.661 0 307.2 137.539 307.2 307.2s-137.539 307.2-307.2 307.2zM681.229 76.8l-71.9 72.036 94.184 94.364-94.184 94.364 71.9 72.036 166.083-166.4-166.083-166.4z" />
<glyph unicode="&#xe608;" glyph-name="User-Add" data-tags="User-Add" d="M716.8 550.4c-107.192 0-201.545-54.915-256.507-138.134-9.96 6.444-19.921 12.888-29.88 19.333-60.804 65.905 34.225 31.62 68.351 90.399l65.846 112.961 3.45 6.021 1.258 6.775c0.96 5.12 1.77 10.326 2.516 15.508 15.953 11.364 27.606 32.64 27.606 56.701 0 23.442-11.625 45.398-27.32 57.759-0.82 5.783-1.75 11.549-2.816 17.265l-1.27 6.735-3.469 5.932-65.86 113.018c-14.124 24.321-46.861 39.327-70.328 39.327h-185.88c-23.461 0-56.21-15.005-70.386-39.437l-12.676-21.919-51.194 15.507 20.859-54.276h-24.287l17.837-24.247-18.87-32.483-1.26-6.67c-0.81-4.218-1.46-8.493-2.126-12.753-17.734-10.391-29.202-37.686-29.202-63.741 0-25.711 13.978-48.216 28.856-58.87 0.842-5.555 1.752-11.1 2.824-16.589l1.299-6.591 68.041-116.247c27.731-47.761 144.38-41.102 58.322-96.782-76.841-49.714-153.681-99.429-230.52-149.146 37.482-107.82 248.593-151.030 425.257-129.64 40.636-122.083 155.796-210.118 291.529-210.118 169.661 0 307.2 137.539 307.2 307.2s-137.539 307.2-307.2 307.2zM883.2 187.387h-112.32v-110.587l-109.823 0.054v110.533h-110.657v111.523h110.657v110.691h109.823v-110.692h112.32v-111.521z" />
<glyph unicode="&#xe609;" glyph-name="User" data-tags="User" d="M618.614 314.349c-68.404 74.144 38.502 35.572 76.895 101.699l74.076 127.081 3.881 6.774 1.416 7.622c1.080 5.76 1.992 11.616 2.831 17.448 17.944 12.783 31.057 36.721 31.057 63.789 0 26.373-13.078 51.071-30.735 64.979-0.922 6.505-1.967 12.993-3.168 19.423l-1.428 7.578-3.903 6.673-74.093 127.144c-15.89 27.363-52.723 44.243-79.123 44.243h-209.112c-26.394 0-63.236-16.881-79.183-44.366l-14.262-24.658-57.591 17.444 23.466-61.060h-27.324l20.068-27.278-17.385-29.907-3.844-6.636-1.418-7.503c-0.911-4.745-1.641-9.554-2.391-14.348-19.953-11.69-32.852-42.396-32.852-71.708 0-28.925 15.724-54.243 32.462-66.227 0.948-6.25 1.971-12.488 3.177-18.662l1.462-7.415 3.827-6.534 72.719-124.243c31.197-53.731 162.427-46.241 65.613-108.881-86.446-55.927-172.891-111.857-259.334-167.788 70.373-202.435 684.805-202.437 755.173 0-90.326 58.437-180.649 116.879-270.975 175.319z" />
<glyph unicode="&#xe60a;" glyph-name="Upload" data-tags="Upload" d="M416.218 623.738v-367.743h191.872v367.743l168.301-168.133 120.155 120.096-383.983 384.3-384.017-384.3 119.832-120.096zM160.388 127.997h703.533v-191.997h-703.533v191.997z" />
<glyph unicode="&#xe60b;" glyph-name="Display-Grid" data-tags="Display-Grid" d="M0 819.2h307.2v-332.8h-307.2v332.8zM358.4 819.2h307.2v-332.8h-307.2v332.8zM716.8 819.2h307.2v-332.8h-307.2v332.8zM0 406.756h307.2v-329.956h-307.2v329.956zM358.4 406.756h307.2v-329.956h-307.2v329.956zM716.8 406.756h307.2v-329.956h-307.2v329.956z" />
<glyph unicode="&#xe60c;" glyph-name="System-Remote" data-tags="System-Remote" d="M573.105-64v30.433c0 39.223-26.523 60.347-60.792 60.347h-391.872c-34.269 0-60.315-21.124-60.315-60.347v-30.433h512.979zM572.6 568.905h-512.447c-34.124 0-60.154-21.155-60.154-60.156v-361.544c0-39.222 26.030-60.332 60.154-60.332h512.447c34.267 0 60.628 21.11 60.628 60.332v361.544c0 39.002-26.362 60.156-60.628 60.156zM542.403 177.655h-451.575v300.47h451.575v-300.47zM722.953 807.648l1.385 3.907-3.873 3.875-7.892 0.483 0.588-5.809zM797.824 860.486l-4.948 2.49-3.425-3.493 6.504-0.932zM713.715 768.918l1.382-6.812 7.373 3.423 1.868 5.844-2.907 2.972zM740.114 762.106l-2.949 4.877-3.492 9.821 2.496 2.903-1.454 6.883-8.925-6.877 2.040-5.847 2.525-9.335h-5.020v-4.396l5.277-2.907zM776.236 846.308l2.524-0.966 0.483 3.908-3.007 1.45 2.039 4.913-8.753-4.913 3.496-7.297zM775.121 960c-137.503 0-248.965-111.798-248.965-249.224 0-21.481 2.723-42.141 7.843-62.598h65.18c-6.888 20.457-10.639 40.782-10.639 62.598 0 39.471 12.269 76.274 33.208 106.419l1.262-0.827-1.475-5.829 5.388-1.463-0.765 7.864 4.512 0.529v9.713h4.058c0 0 0.759-1.691 1.626-3.802 0.895-2.318 1.869-4.637 1.869-4.637l4.879-5.339c0 0-5.919-1.412-7.858-1.412-1.97 0-1-7.791-1-7.791l6.92-2.478 4.462 8.201 10.205 11.38 4.842 15.217 9.272 8.82-5.361 3.905 5.985 3.876 0.485 5.426-15.945-4.595c9.283 7.802 19.336 14.714 30.029 20.611l6.536-2.732-5.535-10.13h-10.693l-2.043-10.228h8.79l12.8 8.188 8.756 8.952 1.521 8.403-12.698 1.019 1.96 1.339c3.087 1.481 6.23 2.892 9.413 4.207l5.788-1.041-1.595-8.847 11.35 6.851 1.939-5.361 2.524-7.85-6.332-7.849-6.885-6.363-10.31 1.556 4.845-10.307-9.307 1.453-15.64-16.219 3.945-5.325 12.73 0.966 10.728 3.493 13.704 1.418 6.4 1.416c0 0 0 3.977-0.413 6.396-0.485 2.455 4.808-0.483 4.808-0.483l5.812 3.388 4.393 13.797 16.23 7.296-2.355 3.871 3.98 4.941-12.835 1.966 3.25 5.158-15.985 5.528h-8.27l2.77 7.2 2.033 1.893c14.070 3.389 28.76 5.153 43.872 5.153 22.44 0 43.959-3.983 63.89-11.242l-0.315-0.078-8.462 0.471v-4.841l3.839-2.213v-4.289l2.739-3.803-9.852 5.98-6.28-3.319 3.155-7.606 1.632-8.68 4.36-4.945 10.312-1.627-2.107-4.323-2.252-6.536 9.238-5.983-0.655-2.696-17.37 14.629-0.968-5.362 7.643-7.676 4.364-1.59-9.896-2.179-1.143-4.911-6.885 7.090-4.36 9.266-1.797 9.233-4.291-5.426 3.32-13.073 5.364-3.836-2.043-12.516-3.323 1.629 0.485-6.492-4.878 0.465-4.844 7.022h-6.161l-8.613 1.106-8.751-0.472-8.196-6.54-5.322-9.22-11.892-8.708-1.326-4.87v-6.016l3.091-5.948 5.528 4.321 1.722-3.217 2.815-4.942 0.512-1.074 2.847-3.251 4.851 3.251-0.55 11.999 5.916 7.608c0 0 0.347 1.281 0.657 2.767 0.658 1.97 1.041 4.288 1.041 4.288l2.109 5.981 3.805-0.553-0.968-4.874-2.248-10.929 10.447 1.14 3.808-1.14-8.202-2.109 1.002-5.464-9.167-6.052 0.556-5.91-8.2-2.176-1.522-3.997-6.642 2.578h-5.532v8.467l-3.837-1.626v-4.945l-13.498-10.857-7.58-2.697-3.405-3.839-10.685 2.802-0.653-4.947 7.063-2.764-0.556-9.787-19.616 0.62-2.698-4.356-2.662-7.606-3.428-6.57 5.052-5.361 5.432-6.641 17.437 5.498 1.038 6.504 3.91 3.319 6.573 2.177-0.758 4.288 6.194 1.627 8.652 1.627 5.372-6.467 9.62-7.124 4.548-7.123v-3.181l5.348 3.181-2.636 4.982 1 5.395-4.868 2.143-4.349 6.017 2.84 8.749 4.845-7.055 7.060-5.499 2.698-9.75 7.057-5.467 1.592-6.016 3.357 7.16-1.071 3.214 1.627 2.767 10.382 8.716 2.112 10.856 4.293 3.219 5.518-0.52 8.152 8.196 0.671-6.57 12.172-3.804v-5.471h-10.053l-14.67-7.812-12.004-6.665 3.322-7.195 10.79-2.25 5.992-2.647 6.572 4.282 0.415-18.54-18.406-3.773-19.652 5.464-7.611-5.983 3.256-3.217-5.915 1.037-19.124 7.123-5.44-0.658-4.458 7.123v8.138h-9.594l-5.604 1.29-17.335-3.654-13.633 1.262-5.844-3.311-3.876-0.494-2.284-7.045-12.49-8.64-17.439-13.103-1.037-16.909-4.879-10.854 0.406-4.447c17.055-8.184 31.24-21.394 40.63-37.708l11.105-0.868-0.969 9.303-4.948 2.767 2.111 4.874 3.807-4.39 3.805-11.342 16.467-1.211 6.404-6.397 9.409-3.839 0.97-15.803 9.825-12.554 9.238-16.287-8.197-9.823 7.373-11.68c-18.93 0.805-36.445 4.436-54.355 10.469v-65.152c20.467-5.12 40.918-7.843 62.41-7.843 137.49 0 249.042 111.409 249.042 248.838s-111.384 248.836-248.879 248.836zM844.367 537.948l17.5 12.746-8.097 20.090 26.122 34.203 8.097 21.819 3.803 11.999-13.629-6.57-8.095-1.591-20.035 12.449-6.088 13.627-7.612 7.574-9.825 21.786 8.128-6.465 15.397-16.911 5.431-7.539 10.797-5.496 3.252-14.109 13.11 8.678 15.745 19.607 7.715 20.091-6.090 4.877-3.182 6.017-3.805-7.159-7.681-8.68-10.967 12.033-3.149 9.201 7.61-1.695 7.543-3.7 10.935 3.7 6.505-2.109 17.437 11.967 9.825-5.464 5.988 3.318 12.97-20.507 6.405 6.157 0.241 7.816 0.485 23.377 3.351 9.317c0.788-6.967 1.198-14.054 1.198-21.234-0.004-78.537-48.58-145.731-117.335-173.216z" />
<glyph unicode="&#xe60d;" glyph-name="System" data-tags="System" d="M972.8 789.76h-153.6c-28.16 0-51.2-23.040-51.2-51.2v-579.84c0-28.16 23.040-51.2 51.2-51.2h153.6c28.16 0 51.2 23.040 51.2 51.2v579.84c0 28.16-23.040 51.2-51.2 51.2zM896 183.040c-28.279 0-51.2 22.921-51.2 51.2s22.921 51.2 51.2 51.2 51.2-22.921 51.2-51.2-22.921-51.2-51.2-51.2zM651.52 785.92h-600.32c-28.16 0-51.2-23.040-51.2-51.2v-446.72c0-28.16 23.040-51.2 51.2-51.2h223.36v-39.68h-94.72c-28.16 0-51.2-23.040-51.2-51.2v-38.4h445.44v38.4c0 28.16-23.040 51.2-51.2 51.2h-94.72v39.68h223.36c28.16 0 51.2 23.040 51.2 51.2v446.72c0 28.16-23.040 51.2-51.2 51.2zM607.538 397.76h-512v288h512v-288z" />
<glyph unicode="&#xe60e;" glyph-name="Synq-Upload" data-tags="Synq-Upload" d="M324.499 118.998l-66.683 117.010 121.844-33.382 26.516 96.739-299.722 82.117-82.135-299.671 96.751-26.51 33.332 121.614 101.551-178.193h512.090l171.882 301.599-103.857 58.317-136.573-239.639zM699.5 777.004l66.684-117.011-121.844 33.384-26.518-96.739 299.722-82.117 82.136 299.671-96.753 26.51-33.33-121.614-101.553 178.193h-512.090l-171.884-301.6 103.86-58.316 136.57 239.639zM352 297.459l160 160.127 160-160.127 96 96.077-256 256.205-256-256.205z" />
<glyph unicode="&#xe60f;" glyph-name="Synq-Download" data-tags="Synq-Download" d="M324.499 118.998l-66.683 117.010 121.844-33.382 26.516 96.739-299.722 82.117-82.135-299.671 96.751-26.51 33.332 121.614 101.551-178.193h512.090l171.882 301.599-103.857 58.317-136.573-239.639zM699.5 777.004l66.684-117.011-121.844 33.384-26.518-96.739 299.722-82.117 82.136 299.671-96.753 26.51-33.33-121.614-101.553 178.193h-512.090l-171.884-301.6 103.86-58.316 136.57 239.639zM672 598.541l-160-160.127-160 160.127-96-96.077 256-256.205 256 256.205z" />
<glyph unicode="&#xe610;" glyph-name="Synq" data-tags="Synq" d="M324.499 118.998l-66.683 117.010 121.844-33.382 26.516 96.739-299.722 82.117-82.135-299.671 96.751-26.51 33.332 121.614 101.551-178.193h512.090l171.882 301.599-103.857 58.317-136.573-239.639zM699.5 777.004l66.684-117.011-121.844 33.384-26.518-96.739 299.722-82.117 82.136 299.671-96.753 26.51-33.33-121.614-101.553 178.193h-512.090l-171.884-301.6 103.86-58.316 136.57 239.639z" />
<glyph unicode="&#xe611;" glyph-name="Support" data-tags="Support" d="M639.533 943.735c-273.788 70.433-552.835-94.415-623.269-368.202-35.155-136.66-11.692-274.628 54.682-387.31l-0.433-0.253c66.372-112.938 175.813-200.535 312.54-236.067l0.179 0.687c0.412-0.108 0.823-0.22 1.234-0.328 136.186-35.035 273.668-11.848 386.135 53.998l0.255-0.438c110.070 64.584 196.104 170.065 233.409 301.834 0.020 0.070 0.037 0.14 0.060 0.211 0.486 1.731 0.972 3.468 1.443 5.207 0.337 1.229 0.666 2.712 0.989 3.946 0.115 0.43 0.233 0.256 0.344 1.536h-0.006c0.214 0 0.43 1.354 0.64 2.161 70.432 273.787-94.415 552.582-368.202 623.017zM677.245 405.489c-0.123-0.476-0.26-0.946-0.387-1.421v0c-5.277-19.823-13.846-37.91-24.968-53.821-0.005-0.004-0.008-0.009-0.008-0.009-0.794-1.135-1.595-2.255-2.413-3.363-0.008-0.010-0.013-0.019-0.020-0.027-0.812-1.103-1.637-2.195-2.474-3.278-0.010-0.014-0.023-0.027-0.032-0.041-0.835-1.076-1.682-2.141-2.537-3.195-0.015-0.018-0.029-0.033-0.042-0.051-0.858-1.050-1.722-2.089-2.6-3.114-0.020-0.024-0.042-0.049-0.063-0.074-0.872-1.019-1.756-2.028-2.652-3.023-0.026-0.027-0.050-0.055-0.076-0.081-0.891-0.993-1.795-1.978-2.71-2.948-0.029-0.029-0.059-0.060-0.084-0.090-0.914-0.966-1.836-1.92-2.769-2.863-0.032-0.032-0.065-0.064-0.099-0.095-0.928-0.941-1.87-1.871-2.824-2.788-0.035-0.035-0.070-0.068-0.105-0.101-0.951-0.915-1.91-1.816-2.883-2.708-0.036-0.032-0.074-0.065-0.109-0.099-0.972-0.89-1.952-1.769-2.944-2.636-0.036-0.032-0.074-0.065-0.111-0.097-0.991-0.865-1.993-1.72-3.002-2.561-0.037-0.031-0.077-0.063-0.116-0.093-1.007-0.841-2.028-1.672-3.055-2.487-0.042-0.031-0.082-0.063-0.123-0.093-1.030-0.815-2.068-1.62-3.116-2.412-0.038-0.028-0.076-0.056-0.113-0.083-1.051-0.792-2.109-1.573-3.178-2.342-0.035-0.026-0.073-0.050-0.11-0.077-1.071-0.769-2.149-1.523-3.236-2.267-0.035-0.024-0.070-0.047-0.102-0.070-1.094-0.744-2.193-1.478-3.304-2.198-0.027-0.018-0.055-0.035-0.083-0.054-1.116-0.722-2.241-1.432-3.373-2.129-0.024-0.015-0.049-0.029-0.072-0.044-1.138-0.698-2.282-1.385-3.433-2.056-37.44-21.827-83.153-29.495-128.436-17.844-0.083 0.022-0.164 0.045-0.246 0.067v0.001c-45.393 11.749-81.78 40.712-103.968 78.092v0c-22.348 37.652-30.29 83.846-18.52 129.599 0.481 1.88 1.006 3.736 1.548 5.586 1.513 5.164 3.245 10.211 5.194 15.119 0.201 0.503 0.413 0.996 0.617 1.498 0.337 0.826 0.668 1.655 1.020 2.473 0.991 2.321 2.038 4.607 3.121 6.866 0.146 0.297 0.282 0.602 0.426 0.897 0.489 1.004 0.996 1.998 1.504 2.989 0.136 0.266 0.264 0.538 0.403 0.801 0.564 1.091 1.147 2.17 1.733 3.245 0.087 0.16 0.173 0.325 0.26 0.484 0.403 0.733 0.822 1.454 1.235 2.181 0.283 0.494 0.558 0.996 0.844 1.486 1.245 2.131 2.541 4.221 3.869 6.285 0.182 0.284 0.355 0.572 0.541 0.855 1.373 2.107 2.801 4.173 4.261 6.205 0.156 0.223 0.31 0.452 0.471 0.672 0.669 0.922 1.352 1.83 2.036 2.737 0.151 0.198 0.294 0.402 0.449 0.602 2.395 3.137 4.897 6.18 7.492 9.128 0.136 0.155 0.269 0.315 0.406 0.468 0.776 0.879 1.568 1.741 2.363 2.602 0.137 0.15 0.274 0.305 0.413 0.454 0.758 0.813 1.526 1.613 2.298 2.409 0.184 0.192 0.362 0.388 0.55 0.577 0.652 0.667 1.316 1.321 1.979 1.978 0.314 0.31 0.617 0.627 0.933 0.933 0.705 0.686 1.421 1.359 2.134 2.031 0.284 0.268 0.561 0.54 0.846 0.806 0.646 0.602 1.307 1.189 1.96 1.779 0.365 0.326 0.721 0.66 1.083 0.984 0.657 0.577 1.32 1.142 1.983 1.71 0.376 0.323 0.746 0.655 1.126 0.975 0.709 0.596 1.431 1.184 2.15 1.769 0.34 0.279 0.673 0.563 1.016 0.837 0.663 0.532 1.336 1.051 2.004 1.572 0.408 0.32 0.813 0.646 1.224 0.96 0.637 0.486 1.284 0.96 1.926 1.437 0.452 0.338 0.9 0.682 1.359 1.014 0.576 0.42 1.161 0.826 1.742 1.236 0.532 0.378 1.061 0.764 1.599 1.134 0.457 0.316 0.918 0.618 1.376 0.929 0.673 0.454 1.343 0.916 2.020 1.361 0.349 0.23 0.708 0.451 1.059 0.676 0.795 0.515 1.588 1.032 2.39 1.532 0.269 0.166 0.545 0.326 0.815 0.493 0.891 0.55 1.784 1.097 2.687 1.629 37.596 22.209 83.663 30.075 129.292 18.337 0.244-0.064 0.489-0.136 0.736-0.201v0c4.288-1.123 8.499-2.4 12.618-3.823 0.008-0.003 0.013-0.004 0.018-0.005 1.368-0.474 2.725-0.961 4.077-1.467 0.013-0.005 0.026-0.010 0.037-0.017 1.341-0.5 2.673-1.018 3.996-1.551 0.018-0.008 0.036-0.017 0.058-0.024 1.316-0.531 2.621-1.076 3.918-1.637 0.023-0.010 0.047-0.020 0.070-0.029 1.292-0.561 2.573-1.134 3.844-1.723 0.029-0.014 0.059-0.028 0.090-0.044 1.266-0.586 2.52-1.187 3.766-1.8 0.031-0.019 0.065-0.033 0.1-0.050 1.242-0.614 2.473-1.244 3.697-1.887 0.032-0.018 0.068-0.037 0.102-0.055 1.219-0.643 2.429-1.298 3.629-1.967 0.035-0.019 0.070-0.040 0.104-0.060 1.201-0.668 2.387-1.352 3.567-2.048 0.035-0.022 0.068-0.042 0.104-0.064 1.176-0.698 2.344-1.409 3.498-2.129 0.035-0.023 0.068-0.045 0.102-0.067 1.156-0.726 2.303-1.46 3.441-2.212 0.032-0.022 0.065-0.042 0.095-0.065 1.139-0.753 2.266-1.517 3.379-2.292 0.029-0.020 0.059-0.042 0.087-0.063 1.116-0.78 2.222-1.572 3.319-2.374 0.027-0.020 0.055-0.041 0.082-0.061 1.096-0.808 2.182-1.626 3.259-2.455 0.023-0.019 0.045-0.036 0.068-0.055 1.078-0.836 2.148-1.681 3.204-2.541 0.014-0.013 0.033-0.027 0.050-0.040 1.061-0.863 2.111-1.738 3.148-2.625 0.015-0.013 0.031-0.026 0.042-0.037 1.041-0.888 2.070-1.789 3.086-2.702 0.010-0.010 0.023-0.020 0.031-0.031 1.020-0.915 2.028-1.842 3.025-2.783 0.008-0.005 0.012-0.010 0.017-0.015 1.001-0.945 1.993-1.901 2.966-2.866 0.001-0.003 0.005-0.004 0.005-0.004 10.789-10.683 20.074-22.732 27.642-35.78h0.003c21.682-37.38 29.275-82.957 17.659-128.11zM444.954 898.167c60.198 8.997 120.897 5.796 180.408-9.516 0.521-0.133 1.041-0.275 1.563-0.411l-53.759-206.4c-0.315 0.082-0.626 0.175-0.941 0.255-31.576 8.124-63.834 9.812-95.882 5.023-30.847-4.609-60.148-15.004-87.098-30.893l-107.93 183.955c24.872 14.629 51.227 26.95 78.36 36.62 27.649 9.855 56.339 17.043 85.277 21.367zM83.2 295.675c-9.855 27.649-17.042 56.34-21.37 85.279-8.996 60.198-5.792 120.896 9.516 180.408 0.033 0.131 0.070 0.256 0.102 0.387l206.397-53.759c-8.070-31.498-9.743-63.676-4.968-95.648 4.625-30.918 15.054-60.288 31.008-87.29 0.022-0.040 0.046-0.079 0.069-0.118l-183.955-107.932c-14.711 24.961-27.092 51.427-36.8 78.673zM664.324 19.196c-27.649-9.852-56.342-17.041-85.279-21.366-60.2-8.996-120.896-5.795-180.408 9.516-0.357 0.092-0.714 0.188-1.073 0.283l53.76 206.396c0.151-0.037 0.301-0.082 0.451-0.122 31.574-8.123 63.835-9.811 95.884-5.023 30.516 4.558 59.516 14.792 86.227 30.394l107.932-183.96c-24.614-14.409-50.674-26.557-77.494-36.118zM745.656 386.149c0.142 0.544 0.3 1.082 0.44 1.627 8.12 31.572 9.812 63.832 5.021 95.882-4.543 30.396-14.714 59.291-30.213 85.916l183.96 107.935c14.327-24.527 26.418-50.478 35.935-77.185 9.852-27.649 17.042-56.342 21.368-85.279 8.995-60.2 5.793-120.896-9.518-180.408-0.192-0.75-0.396-1.499-0.593-2.249l-206.401 53.761z" />
<glyph unicode="&#xe612;" glyph-name="Star-Outline" data-tags="Star-Outline" d="M512.008 729.224l111.048-166.582 198.636-59.588-117.376-176.352v-201.701l-192.268 76.842-192.268-76.841v201.715l-117.43 176.346 198.624 59.58 111.034 166.58zM512 960l-191.963-288.003-320.037-95.997 191.78-288v-352l320.268 128 320.268-128v352l191.685 288-320.010 95.997-191.99 288.003z" />
<glyph unicode="&#xe613;" glyph-name="Star" data-tags="Star" d="M832.315 288l191.685 288-320.010 95.997-191.99 288.003-191.963-288.003-320.037-95.997 191.78-288v-352l320.268 128 320.268-128v352zM511.937 400.568v0 0 0 0 0z" />
<glyph unicode="&#xe614;" glyph-name="Square-X" data-tags="Square-X" d="M0 960v-1024h1024v1024h-1024zM735.534 320.389l-95.956-95.958-127.942 127.944-127.942-127.944-95.956 95.958 127.944 127.942-127.944 127.944 95.956 95.956 127.942-127.944 127.942 127.944 95.956-95.956-127.942-127.944 127.942-127.942z" />
<glyph unicode="&#xe615;" glyph-name="Sort-Desc" data-tags="Sort-Desc" d="M0 209.92h512v-168.96h-512v168.96zM0 532.48h768v-168.96h-768v168.96zM0 855.040h1024v-168.96h-1024v168.96z" />
<glyph unicode="&#xe616;" glyph-name="Sort-Asc" data-tags="Sort-Asc" d="M0 855.040h512v-168.96h-512v168.96zM0 532.48h768v-168.96h-768v168.96zM0 209.92h1024v-168.96h-1024v168.96z" />
<glyph unicode="&#xe617;" glyph-name="Share-Lines" data-tags="Share-Lines" d="M102.4 857.6h819.2v-189.44h-819.2v189.44zM102.4 542.72h819.2v-189.44h-819.2v189.44zM102.4 227.84h819.2v-189.44h-819.2v189.44z" />
<glyph unicode="&#xe618;" glyph-name="Share-Dots" data-tags="Share-Dots" d="M454.4 243.2l-57.6-102.4 57.6-102.4h115.2l57.6 102.4-57.6 102.4zM139.52 243.2l-57.6-102.4 57.6-102.4h115.204l57.596 102.4-57.596 102.4zM769.28 243.2l-57.6-102.4 57.6-102.4h115.2l57.6 102.4-57.6 102.4z" />
<glyph unicode="&#xe619;" glyph-name="Share" data-tags="Share" d="M640.443 384l-42.665-74.491-128.65 63.903 42.52 74.237-0.205 0.356 0.205 0.355-42.52 74.239 128.65 63.896 42.665-74.495h255.468l128.090 223.644-128.090 224.356h-255.468l-128.091-224.353 42.643-74.451-128.648-63.903-42.79 74.707h-255.468l-128.090-223.642 0.202-0.353-0.202-0.358 128.090-223.647h255.468l42.79 74.712 128.648-63.898-42.643-74.458 128.091-224.357h255.468l128.090 224.356-128.090 223.644z" />
<glyph unicode="&#xe61a;" glyph-name="Settings" data-tags="Settings" d="M981.335 353.28c23.465 0 42.665 18.63 42.665 42.098v105.244c0 23.466-19.2 42.098-42.665 42.098h-88.435c-23.468 0-46.775 12.12-51.793 26.587s-8.955 63.944 7.64 80.538l62.5 62.573c16.593 16.593 16.593 43.782 0 60.375l-74.419 74.438c-16.594 16.593-43.747 16.603-60.34 0.009l-62.307-62.3c-16.593-16.593-41.632-24.694-55.296-18.004-13.663 6.689-52.165 39.012-52.165 62.478v87.921c0 23.466-18.633 42.666-42.098 42.666h-105.245c-23.465 0-42.097-19.2-42.097-42.666v-87.525c0-23.466-12.236-46.79-26.838-51.832-14.605-5.041-64.407-9.112-81 7.482l-61.861 61.789c-16.594 16.594-43.784 16.594-60.376 0l-74.437-74.419c-16.593-16.593-16.603-43.747-0.009-60.339l61.594-61.595c16.593-16.593 24.65-41.734 17.907-55.523-6.739-13.788-39.117-52.652-62.582-52.652h-87.011c-23.468 0-42.668-18.632-42.668-42.098v-105.244c0-23.466 19.2-42.098 42.668-42.098h87.011c23.465 0 46.835-12.268 51.93-26.912 5.094-14.644 9.332-64.527-7.26-81.121l-61.597-61.665c-16.593-16.594-16.593-43.781 0-60.375l74.42-74.437c16.593-16.593 43.745-16.602 60.34-0.009l61.791 61.787c16.591 16.594 41.709 24.705 55.466 18.028 13.757-6.679 52.512-38.917 52.512-62.383v-87.525c0-23.466 18.632-42.666 42.098-42.666h105.245c23.464 0 42.097 19.2 42.097 42.666v87.919c0 23.466 12.154 46.817 26.66 51.891 14.508 5.073 64.068 9.174 80.66-7.419l62.377-62.305c16.594-16.593 43.782-16.593 60.375 0l74.437 74.419c16.593 16.593 16.6 43.745 0.009 60.339l-62.496 62.502c-16.595 16.594-24.75 41.608-18.122 55.241s38.812 52.026 62.28 52.026h88.435zM511.287 256c-106.038 0-192 85.961-192 192s85.962 192 192 192c106.040 0 192-85.961 192-192s-85.96-192-192-192z" />
<glyph unicode="&#xe61b;" glyph-name="Search" data-tags="Search" d="M853.766 220.371l-171.545 171.243c22.047 40.41 34.578 86.756 34.578 136.030 0 157.094-127.35 284.444-284.444 284.444s-284.444-127.35-284.444-284.444 127.348-284.444 284.444-284.444c49.253 0 95.58 12.521 135.978 34.547l170.789-171.514c14.413-14.414 35.328-22.323 57.323-22.323 43.985 0 79.644 35.659 79.644 79.644 0 21.995-7.909 42.404-22.323 56.817zM284.444 527.644c0 81.69 66.223 147.91 147.91 147.91 81.69 0 147.91-66.223 147.91-147.91s-66.22-147.91-147.909-147.91c-81.69 0-147.913 66.222-147.913 147.91z" />
<glyph unicode="&#xe61c;" glyph-name="Rocket" data-tags="Rocket" d="M1024 960c0 0-191.996 0-319.996-96-8.635-6.476-140.008-108.143-192-160-32.004 0-96 0-160.004-32-224.604-112.301-352-320-352-320 141.861 106.492 205.103 81.724 256.004 64-36.561-49.738-32-64-32-64s-0.497-62.621 64-128c65.687-64.443 128-64 128-64s15.003-4.662 63.996 32c17.942-51.075 43.101-113.699-63.996-256 0 0 207.67 127.347 319.996 352 32 64 32 128 32 160 52.422 52.282 153.537 183.383 160.004 192 95.996 128 95.996 320 95.996 320zM0-64c45.979 7.978 428.861 76.53 256.004 256-179.693 172.819-248.192-210.331-256.004-256z" />
<glyph unicode="&#xe61d;" glyph-name="Ribbon" data-tags="Ribbon" d="M768-64l-256 256-256-256v1024h512z" />
<glyph unicode="&#xe61e;" glyph-name="Protection-None" data-tags="Protection-None" d="M512 843.572c134.083-68.963 261.836-106.812 343.040-126.118v-44.174c0-99.348-19.268-194.104-57.26-281.635-30.857-71.092-74.267-138.148-129.023-199.308-58.103-64.899-117.206-110.070-156.758-136.643-39.555 26.575-98.657 71.747-156.76 136.643-54.752 61.16-98.162 128.215-129.021 199.308-37.993 87.53-57.258 182.286-57.258 281.635v44.174c81.206 19.306 208.96 57.156 343.040 126.118zM512 960c-223.706-127.516-445.44-158.72-445.44-158.72 0-32.049 0-128 0-128 0-495.931 417.894-722.962 445.44-737.28 27.547 14.318 445.44 241.349 445.44 737.28 0 0 0 95.951 0 128 0 0-221.734 31.204-445.44 158.72v0z" />
<glyph unicode="&#xe61f;" glyph-name="Protection-Med" data-tags="Protection-Med" d="M512 960c-223.704-127.516-445.44-158.72-445.44-158.72 0-32.049 0-128 0-128 0-495.931 417.894-722.962 445.44-737.28 27.547 14.318 445.44 241.349 445.44 737.28 0 0 0 95.951 0 128 0 0-221.734 31.204-445.44 158.72zM855.040 673.28c0-99.348-19.267-194.104-57.258-281.635-30.858-71.092-74.268-138.148-129.024-199.308-58.103-64.899-117.206-110.070-156.758-136.643-39.553 26.575-98.657 71.747-156.759 136.643-54.753 61.16-98.163 128.215-129.023 199.308-37.993 87.53-57.258 182.286-57.258 281.635v44.174c81.206 19.306 208.96 57.156 343.040 126.118 134.084-68.963 261.836-106.812 343.040-126.118v-44.174zM271.36 442.88c49.551-124.193 134.2-233.485 240.64-312.32 106.44 78.835 191.087 188.127 240.64 312.32-62.93-9.45-174.051-30.72-240.64-30.72-66.587 0-177.709 21.27-240.64 30.72z" />
<glyph unicode="&#xe620;" glyph-name="Protection-Full" data-tags="Protection-Full" d="M512 960c-223.703-127.516-445.44-158.72-445.44-158.72 0-32.049 0-128 0-128 0-495.931 417.894-722.962 445.44-737.28 27.547 14.318 445.44 241.349 445.44 737.28 0 0 0 95.951 0 128 0 0-221.734 31.204-445.44 158.72zM855.040 673.28c0-99.348-19.265-194.104-57.258-281.635-30.858-71.092-74.268-138.148-129.024-199.308-58.103-64.9-117.204-110.070-156.754-136.643-39.556 26.575-98.66 71.747-156.762 136.643-54.755 61.16-98.164 128.215-129.024 199.308-37.993 87.53-57.258 182.286-57.258 281.635v44.174c81.206 19.306 208.96 57.156 343.040 126.118 134.084-68.963 261.834-106.812 343.040-126.118v-44.174zM271.36 442.88c49.551-124.193 134.2-233.485 240.64-312.32 106.44 78.835 191.087 188.127 240.64 312.32-62.93-9.45-174.051-30.72-240.64-30.72-66.587 0-177.704 21.27-240.64 30.72zM225.28 673.28c0.125-55.677 5.629-110.636 20.48-163.84 53.861-8.431 190.604-30.72 266.24-30.72 75.639 0 212.376 22.289 266.24 30.72 14.851 53.204 20.358 108.163 20.48 163.84-127.916 32.049-222.758 60.111-286.72 92.16-63.959-32.049-158.801-60.111-286.72-92.16z" />
<glyph unicode="&#xe621;" glyph-name="Play" data-tags="Play" d="M154.88 33.28l714.24 415.075-714.106 414.365z" />
<glyph unicode="&#xe622;" glyph-name="Pin" data-tags="Pin" d="M1000.718 616.108h0.061l-320.637 320.608c-14.070 14.39-34.263 23.284-56.276 23.284-44.186 0-79.932-35.959-79.932-80.141 0-22.015 8.975-41.208 23.363-56.557h-0.006l0.138-0.003c0.005-0.008 0.010 0.058 0.015 0.055l31.99-31.958-250.391-250.374-43.205 43.212c-11.732 14.458-29.637 23.708-49.708 23.708-35.347 0-64-28.653-64-63.999 0-17.549 7.067-33.444 18.508-45.005l-0.257-0.256 128.151-128.15-306.531-338.533-32-96 96 32 338.533 306.532 127.83-127.83 0.257 0.257c11.601-11.736 27.703-19.013 45.51-19.013 35.345 0 64 28.657 64 64.003 0 20.072-9.248 37.975-23.706 49.71l-43.383 43.383 250.388 250.39 31.994-31.995c0.005-0.003 0.008 0.133 0.013 0.131l0.145-0.008h0.004c14.464-14.068 34.401-23.419 56.413-23.419 44.183 0 80.003 35.594 80 79.776 0.001 22.013-8.893 42.122-23.281 56.191z" />
<glyph unicode="&#xe623;" glyph-name="Notification" data-tags="Notification" d="M171.52 678.4v-0.079c-95.192-2.71-171.52-80.714-171.52-176.561s76.328-173.851 171.52-176.561v-0.079c21.208 0 38.4 17.192 38.4 38.4v276.48c0 21.208-17.192 38.4-38.4 38.4zM1002.161 888.26c-0.397 0.040-6.418-0.462-8.189-1.027-64.274-16.174-378.358-208.833-584.371-208.833h-128c-19.794 0-35.84-16.046-35.84-35.84v-281.6c0-19.794 16.046-35.84 35.84-35.84h81.92c20.408 0 41.151-1.349 61.44-3.551v-278.049c0-19.794 16.046-35.84 35.84-35.84h102.4c19.794 0 35.84 16.046 35.84 35.84v240.64c40.644 0 315.761-133.874 381.201-165.841 0 0 12.883-8.241 20.721-8.241 7.387 0 13.947 3.492 18.162 8.899 3.121 3.79 4.878 8.516 4.878 13.683v545.74c0 0 0 186.765 0 186.88-0.001 12.32-9.679 22.351-21.841 22.98z" />
<glyph unicode="&#xe624;" glyph-name="Notes" data-tags="Notes" d="M783.881 830.72h-128l64 128h-96l-64-128h-96l64 128h-96l-64-128h-96l64 128h-96l-64-128h-95.241v-896h672v160h191.241l-160 736zM656.64 30.72h-480v672h480v-672zM272.64 606.72h288v-64h-288v64zM272.64 478.72h288v-64h-288v64zM272.64 350.72h288v-64h-288v64zM272.64 222.72h288v-64h-288v64z" />
<glyph unicode="&#xe625;" glyph-name="Nav-Stream" data-tags="Nav-Stream" d="M286.72 79.36c0-79.176-64.184-143.36-143.36-143.36s-143.36 64.184-143.36 143.36c0 79.176 64.184 143.36 143.36 143.36s143.36-64.184 143.36-143.36zM0 588.8v-184.32c260.134 0 471.040-210.906 471.040-471.040h184.32c0 361.923-293.437 655.36-655.36 655.36zM0 960v-184.32c463.731 0 839.68-375.949 839.68-839.68h184.32c0 565.539-458.461 1024-1024 1024z" />
<glyph unicode="&#xe626;" glyph-name="Nav-Server" data-tags="Nav-Server" d="M519.013 764.957c-6.243-16.47-34.907 2.415-11.562-26.78 21.362 8.412 5.059 9.64 11.562 26.78zM403.025 565.388c-8.66-4.71 10.273-13.642 24.887-9.219 2.362 1.239 4.739 2.497 7.119 3.764-5.514 20.849-7.363 34.648-11.845 53.617-13.723-20.456-14.664-36.068-20.161-48.163zM396.242 567.342c-17.503 16.658-13.409 12.758 0 0v0zM512.003 960c-282.66 0-512.003-229.345-512.003-512s229.343-512 512.003-512c282.492 0 511.997 229.345 511.997 512s-229.505 512-511.997 512zM539.547 390.115c-75.174 30.314-111.869 74.533-192.038 22.266-81.587-53.203-104.613-198.58 33.618-190.317-5.907 13.274-7.837 24.623-7.857 34.848 71.363-41.492 114.482-112.366 122.24-191.922-295.535 12.504-468.076 355.023-301.792 598.584 0.241 1.153 0.9 2.194 2.072 3.030-0.703-1.005-1.381-2.020-2.072-3.030-1.028-4.916 5.573-11.887 12.745-14.013 5.612 17.091 1.786 19.748 7.871 38.844 2.214-19.209 19.848-38.934 21.5-53.99 29.135 42.907 53.704 84.141 61.651 116.841-10.962-3.149-21.923-6.303-32.888-9.45 22.336 40.901 47.474 53.101 75.427 36.588-17.075-17.082-23.528-25.574-37.681-39.626 65.176 16.344 53.213 26.664 39.532 52.696 22.004 15.178 37.364 17.828 32.113-9.053 44.673-10.396 30.54-21.99-15.913-39.117 3.336-7.069 6.659-14.129 9.99-21.198-18.132-9.7-29.761-10.607-51.446-30.368 80.088-22.332 126.46 30.641 164.914 84.691-30.947 10.099-26.868 19.334-69.795 25.851 55.885 47.279 160.616 32.324 232.337 6.182-24.637 0.116-17.027-14.125-4.561-30.173-19.108-0.108-11.181 21.463-33.38 5.475 20.357-30.711 11.872-28.81 40.095-47.009-4.561-24.833-5.454-22.538 8.705-40.174-11.94 10.024-23.887 20.049-35.822 30.081-1.723-13.632 6.839-27.537 22.767-30.081-25.859-15.213-40.669-5.467-47.112 22.445 2.2-23.633-1.359-51.535-3.556-66.077-68.338 46.986-160.024-40.419-89.627-85.029 4.993 17.156 24.338 46.46 33.175 64.376 0.954 2.441 2.129 5.192 3.574 8.311-0.769-2.324-2.011-5.144-3.574-8.311-12.433-31.932 15.162-9.332 26.337-24.195-23.759-34.766-49.837-59.244-75.404-30.149-13.537-7.384-29.804-16.429-45.797-24.941 0.010-0.031 0.018-0.061 0.027-0.093-2.001-1.595-4.288-2.705-6.7-3.437-10.74-5.633-21.161-10.881-30.328-15.058-1.443-7.685 8.283-23.95 12.063-35.983-119.905-22.643-3.528-34.871 1.13-36.841 30.053-12.703 49.9 48.202 91.58-22.327-2.213 11.965 0.812 42.429-6.083 62.65 20.164-23.107 32.101-45.443 47.953-69.476 14.18 39.222 35.935 68.791 70.886 89.677 8.632-6.98 20.682-25.12 26.772-34.071-28.425-4.696-48.785-22.139-76.038-28.658 17.080-28.21 31.107-14.771 55.018-15.716-7.374-46.794-68.707-53.891-86.63-53.55zM654.953 91.914c29.407 50.149 79.327 128.394 97.816 207.414-69.078-34.324-113.349 35.776-134.652 97.225 37.916-29.217 69.816-66.373 88.695-103.904 50.821 28.79 81.667 74.711 56.303 121.898-2.932-0.908-18.345-28.422-23.688-32.568-7.497 7.781-22.615 39.854-29.116 43.658 26.41-8.238 41.853-5.466 67.222-7.821 45.078 23.162 69.341 33.686 95.336-21.974 11.891 26.282 21.802 63.648 21.618 95.972 19.316-169.9-80.052-336.334-239.534-399.9z" />
<glyph unicode="&#xe627;" glyph-name="Nav-Mod" data-tags="Nav-Mod" d="M768 897.28h-512l-256-449.28 256-449.28h512l256 449.28-256 449.28zM732.16 317.29l-220.16-125.29-220.16 125.29v256l220.16 130.71 220.16-130.71v-256z" />
<glyph unicode="&#xe628;" glyph-name="Nav-Mission" data-tags="Nav-Mission" d="M768 897.28h-512l-256-449.28 256-449.28h512l256 449.28-256 449.28zM747.52 361.935c-34.56-22.842-73.339-31.45-114.993-25.96-32.579 4.293-63.64 15.218-94.452 25.74-32.288 11.027-65.293 22.542-99.558 26.318-26.798 2.954-51.956-0.147-76.276-9.061v-225.372h-60.16v512h60.16v-11.949c24.32 8.911 49.403 12.012 76.197 9.059 34.266-3.77 66.989-15.283 99.274-26.313 30.811-10.532 62.132-21.455 94.711-25.742 41.658-5.491 80.538 3.116 115.098 25.96 0-106.386 0-168.296 0-274.679z" />
<glyph unicode="&#xe629;" glyph-name="Nav-Collection" data-tags="Nav-Collection" d="M969.16 700.26l-579.232-0.151c-69.791 0-43.191 106.291-104.207 106.291h-237.764c-26.52 0-47.956-23.013-47.956-51.501v-595.77c0-37.94 28.614-69.285 63.91-69.285l755.296-0.244c46.464 0 76.572 25.399 84.946 52.882h0.2c0 0 101.507 407.988 109.321 436.468 10.408 37.942 30.019 121.309-44.513 121.309z" />
<glyph unicode="&#xe62a;" glyph-name="Lock" data-tags="Lock" d="M864.916 479.727h-31.784v164.229c1.281 9.452-0.146 19.037-0.146 28.736 0 109.583-76.879 204.835-176.777 253.288-38.839 19.51-82.223 31.38-128.113 33.627-5.082 0.26-10.19 0.393-15.27 0.393-0.137 0-0.284-0.003-0.424-0.003-0.099 0-0.202 0.003-0.302 0.003-61.556 0-119.3-17.309-168.137-47.31-87.93-51.389-153.094-139.69-153.094-239.997 0-0.024 0-0.045 0-0.069v-192.896h-31.597c-32.076 0-64.553-31.881-64.553-63.89v-416.125c0-32.010 32.477-63.712 64.552-63.712h705.645c32.077 0 64.364 31.702 64.364 63.712v416.125c0 32.009-32.288 63.89-64.364 63.89zM603.48 48.623c3.066-4.905 4.837-10.568 4.837-16.773 0-17.679-14.359-31.882-32.073-31.882h-128.3c-17.714 0-32.076 14.204-32.076 31.882 0 6.207 1.774 11.932 4.84 16.837l44.468 155.291c-29.418 16.426-49.308 47.803-49.308 83.836 0 53.036 43.081 96.022 96.225 96.022s96.223-42.999 96.223-96.033c0-36.033-19.887-67.428-49.306-83.855l44.468-155.324zM672.886 479.727h-321.773v160.175c0 88.394 72.314 160.049 160.887 160.049 88.57 0 160.886-71.654 160.886-160.049v-160.175z" />
<glyph unicode="&#xe62b;" glyph-name="Link" data-tags="Link" d="M936.36 872.273c-58.423 58.483-134.999 87.727-211.578 87.727-76.575 0-153.152-29.244-211.579-87.727-0.033-0.032-0.033-0.035-0.033-0.035 0.004 0-0.005-0.013-0.506-0.511l0.357-0.357-72.993-73.069c17.974 2.657 36.191 4.006 54.587 4.006 48.129 0 95.066-9.147 139.507-27.186 0.097-0.040 0.195-0.084 0.293-0.125 25.638 20.353 57.148 31.407 90.367 31.407 38.938 0 75.546-15.18 103.077-42.74 27.533-27.561 42.694-64.204 42.694-103.18 0-38.819-15.037-75.323-42.362-102.843-0.275-0.273-0.549-0.543-0.824-0.818l-108.771-108.763 0.204-0.202-86.614-86.412c-27.455-27.389-64.009-42.473-102.925-42.473-38.971 0-75.567 15.148-103.043 42.647-19.194 19.215-31.898 42.514-38.12 67.136l-116.369-116.488c12.506-21.147 27.834-41.083 45.988-59.256 58.394-58.452 134.985-87.639 211.546-87.639 76.486 0 152.947 29.119 211.246 87.282l0.367-0.367 195.302 195.498-0.366 0.317c0.475 0.475 0.509 0.457 0.509 0.457h0.003c0 0 0.005 0.052 0.032 0.082 116.854 116.969 116.854 306.661 0.001 423.63zM389.796 120.84c-0.092 0.035-0.182 0.078-0.273 0.115-25.61-20.323-57.151-31.357-90.426-31.357-38.972 0-75.567 15.148-103.044 42.652-53.892 53.946-56.664 140.097-8.268 197.358l212.835 213.051c0.892 0.758 1.796 1.501 2.705 2.234 0.084 0.068 0.17 0.133 0.255 0.2 0.852 0.681 1.708 1.357 2.572 2.017 0.023 0.020-0.037 0.037-0.014 0.052 1.866 1.43 4.175 2.807 5.597 4.14v0c24.178 16.719 52.818 25.724 82.798 25.724 38.938 0 75.588-15.177 103.121-42.738 18.984-19.005 32.106-42.326 38.412-67.757l27.639 27.562c1.353 1.617 2.785 3.177 4.287 4.677 0 0 52.104 52.097 84.462 84.452-12.561 21.299-27.977 41.377-46.258 59.675-51.745 51.796-117.728 80.653-185.338 86.577-0.015 0.003-0.029 0.003-0.044 0.005-3.336 0.289-6.676 0.526-10.017 0.705-0.259 0.014-0.52 0.028-0.778 0.041-1.618 0.084-3.237 0.157-4.856 0.215-0.081 0.003-0.163 0.003-0.243 0.008-1.481 0.050-2.962 0.087-4.444 0.115-0.389 0.010-0.777 0.015-1.166 0.023-1.563 0.026-3.126 0.040-4.69 0.040-1.94 0-3.88-0.023-5.818-0.060-0.265-0.006-0.531-0.010-0.796-0.015-1.85-0.040-3.7-0.101-5.546-0.175-0.328-0.013-0.654-0.028-0.98-0.042-1.848-0.081-3.695-0.178-5.544-0.293-0.269-0.018-0.539-0.035-0.81-0.052-1.932-0.125-3.863-0.264-5.791-0.429-0.044-0.003-0.086-0.008-0.128-0.010-1.97-0.168-3.939-0.357-5.905-0.562-0.151-0.015-0.302-0.029-0.453-0.047-1.925-0.205-3.848-0.43-5.77-0.672-0.233-0.029-0.467-0.058-0.7-0.087-1.916-0.246-3.831-0.508-5.742-0.791-0.184-0.028-0.369-0.058-0.553-0.084-6.134-0.919-12.244-2.029-18.322-3.331-0.064-0.013-0.129-0.028-0.193-0.040-2.029-0.436-4.055-0.893-6.077-1.371-0.040-0.010-0.077-0.020-0.115-0.029-52.16-12.365-101.651-38.907-142.337-79.634-0.032-0.032-0.033-0.032-0.032-0.032 0.003 0-0.004-0.013-0.506-0.518l0.358-0.352-195.309-195.503-0.356 0.36c-116.264-116.772-116.374-306.368 0.356-423.214 58.396-58.452 134.986-87.639 211.548-87.639 76.486 0 152.948 29.12 211.245 87.282l0.369-0.37 74.996 75.075c-18.578-2.84-37.414-4.292-56.443-4.292-48.123 0.001-95.048 9.13-139.469 27.145z" />
<glyph unicode="&#xe62c;" glyph-name="Like" data-tags="Like" d="M997.943 483.054c-13.612 7.191-27.798 13.868-42.46 18.369-38.113 11.703-76.685 21.925-114.988 33.027-27.272 7.903-54.49 16.017-81.573 24.544-14.953 4.71-23.397 14.689-26.348 30.981-14.394 79.47-29.725 158.767-44.477 238.173-2.935 15.791-6.15 31.286-14.903 45.126-15.679 24.788-43.064 35.642-71.295 28.012-27.503-7.434-48.032-35.448-49.654-66.23-1.048-19.899-2.385-39.895-5.471-59.552-7.727-49.157-27.956-92.274-64.266-127.247-20.305-19.561-43.656-34.781-67.443-49.544-16.529-10.258-33.175-20.428-48.951-31.775-16.069-11.558-28.449-26.354-34.191-46.035-8-27.414-13.77-55.34-15.302-83.744-2.687-49.816-4.177-99.707-5.434-149.585-0.539-21.426 0.166-42.932 1.379-64.339 1.554-27.379 3.514-54.769 6.565-82.012 2.452-21.846 7.725-43.217 17.912-63.012 5.157-10.024 12.205-18.182 22.815-22.834 88.288-38.708 180.15-61.239 277.147-63.067 27.78 2.606 55.676 4.375 83.304 8.105 19.204 2.588 37.865 9.29 57.078 11.66 44.335 5.467 78.026 28.241 106.147 61.268 21.324 25.047 36.376 53.738 47.341 84.433 11.615 32.516 25.254 63.914 42.804 93.713 11.456 19.452 19.858 40.412 22.028 63.121 2.107 22.048 8.934 42.87 14.487 64.072 4.669 17.83 9.385 35.718 12.561 53.846 4.365 24.9-2.449 38.71-24.81 50.527zM226.812 544.695c-9.412 11.693-21.582 16.972-36.563 16.916-45.444-0.168-90.939-1.364-136.314 0.387-31.853 1.23-54.259-16.667-53.932-53.665 1.19-133.325 0.461-266.665 0.486-400 0-4.991-0.003-10.006 0.47-14.962 1.61-16.996 13.138-31.351 29.499-35.771 6.639-1.792 13.751-2.514 20.659-2.566 34.452-0.248 68.911-0.114 103.369-0.111 12.484 0 24.987-0.398 37.449 0.124 20.71 0.864 36.614 12.378 41.72 30.474 1.723 6.107 1.81 12.813 1.823 19.245 0.123 67.414 0.077 134.831 0.077 202.248 0 34.958 0 69.914 0 104.873 0 34.455-0.091 68.914 0.046 103.369 0.038 10.79-1.837 20.803-8.79 29.44z" />
<glyph unicode="&#xe62d;" glyph-name="Licenses" data-tags="Licenses" d="M969.498 432.157l0.055 47.965-41.336 30.793-30.779 40.764h-48.068l-48.069 24.314-47.986-23.852-48.221 0.125-30.828-41.33-40.666-30.665v-48.152l-24.302-48.068 23.907-48.088-0.12-48.035 41.211-30.729 30.836-40.881h48.065l48.067-24.314 48.092 23.904 48.118-0.125 30.762 41.27 40.724 30.726v48.151l24.326 48.068zM798.88 129.092l-63.932 32.188h-32.228v-225.28l96 64.362 96-64.362v225.243l-31.882 0.037zM576.147 256.088l0.105 63.955-32.133 64.026 31.88 64v64.11l54.639 40.877 41.473 55.073 64.102-0.074 63.786 31.945v320h-768v-1024h608v266.609l-9.007 12.193-54.845 41.286zM128 768h576v-64h-576v64zM320 64h-192v64h192v-64zM448 320h-320v64h320v-64zM448 448h-320v64h320v-64zM512 576h-384v64h384v-64z" />
<glyph unicode="&#xe62e;" glyph-name="Joystick" data-tags="Joystick" d="M1022.29 305.119c0.001-0.015 0.001-0.031 0.003-0.046 0.068-0.864 0.456-5.848 1.411-18.112 0.756-9.706-1.372 17.636-1.413 18.158zM1022.294 305.065c0 0.003 0 0.005 0 0.008-0.015 0.193-0.014 0.179 0-0.008zM994.191 432.899c-24.16 82.403-54.426 162.68-85.605 242.611-4.051 10.387-10.1 20.572-19.986 26.348-11.786 6.884-18.417 16.955-21.343 29.425-15.443 65.834-694.689 65.85-710.138 0-2.925-12.47-9.555-22.541-21.341-29.425-9.885-5.775-15.936-15.96-19.986-26.348-31.18-79.931-61.446-160.209-85.605-242.611-14.004-47.784-25.635-96.125-29.513-145.939-6.318-81.116 31.85-142.839 109.608-171.067 28.242-10.245 138.862 124.073 161.249 142.566 63.107 52.141 164.658 32.46 240.38 33.624 75.855-1.175 177.715 18.612 240.936-33.624 22.385-18.493 133.005-152.812 161.248-142.566 86.308 31.333 113.377 95.991 108.759 180.694-4.543 46.424-15.564 91.613-28.663 136.312zM390.981 409.6h-116.362l-58.182 102.4 58.182 102.4h116.362l58.182-102.4-58.182-102.4zM669.382 624.64h43.635l21.819-38.4-21.819-38.4h-43.635l-21.819 38.4 21.819 38.4zM585.019 473.6l-21.819 38.4 21.819 38.4h43.634l21.819-38.4-21.819-38.4h-43.634zM713.018 399.36h-43.635l-21.819 38.4 21.819 38.4h43.635l21.819-38.4-21.819-38.4zM797.381 473.6h-43.635l-21.819 38.4 21.819 38.4h43.635l21.819-38.4-21.819-38.4zM1023.704 286.959c0 0.009-0.001 0.017-0.003 0.026 0.326-4.195 0.461-5.919 0.003-0.026zM1022.294 305.065c0.221-2.848 0.407-5.673 0.561-8.477 0.314-3.195 0.598-6.395 0.846-9.601-0.458 5.903-1.299 16.692-1.407 18.079z" />
<glyph unicode="&#xe62f;" glyph-name="Home" data-tags="Home" d="M1013.976 544.346l-477.33 406.967c-13.252 11.584-34.569 11.584-47.816 0l-231.551-197.43v109.713c0 17.596-15.122 31.124-32.722 31.124h-64c-17.6 0-31.278-13.528-31.278-31.124v-218.68l-118.492-100.57c-13.252-11.584-14.060-31.212-1.578-43.619l50.717-50.508c12.481-12.406 33.647-13.267 47.092-1.911l381.117 311.331c13.443 11.356 35.43 11.356 48.877 0l380.407-311.329c13.443-11.356 34.652-10.496 47.133 1.91l50.817 50.509c12.481 12.404 11.853 32.035-1.395 43.617zM871.693 340.183l-334.693 291.060c-13.521 11.265-35.576 11.265-49.096 0l-334.437-291.060c-13.521-11.265-24.187-34.879-24.187-52.475s0-46.391 0-63.987v-255.951c0-17.596 13.678-31.77 31.278-31.77h159.999c17.6 0 32.723 14.173 32.723 31.77v255.95c0 17.596 13.677 32.28 31.277 32.28h255.999c17.6 0 32.724-14.684 32.724-32.28v-255.95c0-17.596 13.674-31.77 31.274-31.77h159.999c17.6 0 31.447 14.173 31.447 31.77v255.95c0 17.596 0 46.391 0 63.987s-10.787 41.211-24.307 52.476z" />
<glyph unicode="&#xe630;" glyph-name="Hexagon-X-Outline" data-tags="Hexagon-X-Outline" d="M768.001 897.28h-512.001l-256-449.28 256-449.28h512.001l255.999 449.28-255.999 449.28zM720 83.32h-416l-208 364.68 208 364.68h416l208-364.68-208-364.68zM736 576.751l-96 96.215-128-128.287-128 128.287-96-96.215 128-128.284-128-128.287 96-96.214 128 128.285 128-128.285 96 96.214-128.001 128.287z" />
<glyph unicode="&#xe631;" glyph-name="Hexagon-X" data-tags="Hexagon-X" d="M768.001 897.28h-512.001l-256-449.28 256-449.28h512.001l255.999 449.28-255.999 449.28zM736 320.218l-95.999-96.215-128 128.285-128.001-128.285-96 96.215 128 128.285-128 128.285 96 96.214 128.001-128.285 128 128.285 95.999-96.214-128-128.285 128-128.285z" />
<glyph unicode="&#xe632;" glyph-name="Hexagon-Upload" data-tags="Hexagon-Upload" d="M352 297.459l160 160.127 160-160.127 96 96.077-256 256.205-256-256.205zM768 897.28h-512l-256-449.28 256-449.28h512l256 449.28-256 449.28zM708.49 101.12h-392.98l-197.652 346.88 197.652 346.88h392.98l197.652-346.88-197.652-346.88z" />
<glyph unicode="&#xe633;" glyph-name="Hexagon-SelfUpdating" data-tags="Hexagon-SelfUpdating" d="M768 897.28h-512l-256-449.28 256-449.28h512l256 449.28-256 449.28zM688 368.157l-112 111.948v-288.105h-128v288.105l-112-111.948-79.931 79.963 255.965 255.88 255.919-255.88-79.954-79.963z" />
<glyph unicode="&#xe634;" glyph-name="Hexagon-SelfDone" data-tags="Hexagon-SelfDone" d="M768 897.28h-512l-256-449.28 256-449.28h512l256 449.28-256 449.28zM449.413 229.055l-219.013 219.108 93.852 93.949 125.089-125.14 250.257 249.972 94.002-93.804-344.187-344.086z" />
<glyph unicode="&#xe635;" glyph-name="Hexagon-Outline" data-tags="Hexagon-Outline" d="M708.49 794.88l197.652-346.88-197.652-346.88h-392.98l-197.652 346.88 197.652 346.88h392.98zM768 897.28h-512l-256-449.28 256-449.28h512l256 449.28-256 449.28z" />
<glyph unicode="&#xe636;" glyph-name="Hexagon-Next" data-tags="Hexagon-Next" d="M472.96 703.78l256-256.205-256-256.205-96 96.077 160 160.128-160 160.128zM0 448l256-449.28h512l256 449.28-256 449.28h-512l-256-449.28zM117.857 448l197.652 346.88h392.98l197.652-346.88-197.652-346.88h-392.98l-197.652 346.88z" />
<glyph unicode="&#xe637;" glyph-name="Hexagon-Info" data-tags="Hexagon-Info" d="M768 897.35h-100.707c-2.572 2.56-5.226 4.841-7.978 7.283-41.65 36.983-90.753 55.366-147.299 55.366-56.58 0-105.708-18.323-147.332-55.308-2.755-2.446-5.411-4.782-7.982-7.342h-100.703l-256-448.673 256-448.672h61.44v-64.005h391.68v64.005h58.88l256 448.672-256 448.673zM601.6 32.008h-177.92v512.037h177.92v-512.037zM589.403 672.251c-21.885-19.427-47.684-29.133-77.396-29.133-29.727 0-55.54 9.706-77.411 29.133-21.885 19.424-32.819 46.086-32.819 79.973s10.934 60.534 32.819 79.96c21.87 19.428 47.683 29.146 77.411 29.146 29.711 0 55.511-9.718 77.396-29.146 21.869-19.427 32.819-46.072 32.819-79.96s-10.95-60.549-32.819-79.973z" />
<glyph unicode="&#xe638;" glyph-name="Hexagon-Help" data-tags="Hexagon-Help" d="M768 896.475h-42.834c-19.987 14.062-43.090 27.137-69.114 37.812-42.525 17.4-93.289 25.713-155.196 25.713-47.334 0-96.073-6.374-144.846-18.801-50.26-12.8-94.98-31.651-132.918-55.963l-43.567-27.924 21.454-57.725-200.979-351.636 256-447.924h85.708c6.355-7.662 12.913-13.888 19.185-19.163 35.35-29.763 76.182-44.863 121.358-44.863s86.007 15.075 121.363 44.837c6.281 5.288 12.845 11.525 19.21 19.187h145.176l256 448.225-256 448.225zM562.083 31.226c-23.494-19.775-50.083-29.676-79.762-29.676-29.681 0-56.268 9.9-79.764 29.676-23.494 19.788-35.244 47.788-35.244 84.076 0 36.275 11.748 64.3 35.244 84.087 23.496 19.775 50.084 29.676 79.764 29.676s56.266-9.9 79.762-29.676c23.497-19.788 35.246-47.813 35.246-84.087 0-36.288-11.749-64.288-35.246-84.076zM755 612.987c-7.014-19.387-15.884-37.312-26.588-53.787-10.724-16.5-23.091-32.15-37.1-46.988-14.028-14.838-27.63-28.863-40.809-42.038-9.893-9.9-20.211-20.412-30.916-31.538-10.723-11.124-20.403-22.875-29.061-35.237-8.655-12.362-16.038-25.35-21.796-38.95-5.777-13.6-8.812-27.412-8.812-41.425 0-3.3 0-8.238 0-14.838s0.717-12.75 1.546-17.875h-163.236c-1.661 8.963-2.687 17.8-3.092 28.113-0.425 10.3-0.617 19.3-0.617 26.725 0 23.063 2.879 43.963 8.654 62.513 5.76 18.55 13.39 35.887 22.879 51.963 9.469 16.076 20.406 31.124 32.772 45.149 12.366 14.001 25.139 27.612 38.337 40.813 18.956 18.95 36.268 37.713 51.937 56.262 15.653 18.55 23.497 39.762 23.497 63.675 0 19.788-7.633 36.675-22.877 50.7-15.265 14.012-37.718 21.025-67.397 21.025-29.681 0-57.716-3.712-84.091-11.124-26.395-7.425-55.649-19.387-87.802-35.863l-51.939 139.725c32.152 20.588 70.062 36.475 113.77 47.601 43.689 11.137 86.564 16.7 128.611 16.7 52.75 0 96.244-7.013 130.464-21.025 34.202-14.025 61.215-31.75 81-53.175 19.786-21.437 33.583-44.937 41.428-70.476 7.826-25.563 11.748-49.888 11.748-72.95-0.001-23.087-3.517-44.324-10.511-63.675z" />
<glyph unicode="&#xe639;" glyph-name="Hexagon-Download" data-tags="Hexagon-Download" d="M672 598.541l-160-160.127-160 160.127-96-96.077 256-256.205 256 256.205zM768 897.28h-512l-256-449.28 256-449.28h512l256 449.28-256 449.28zM708.49 101.12h-392.98l-197.652 346.88 197.652 346.88h392.98l197.652-346.88-197.652-346.88z" />
<glyph unicode="&#xe63a;" glyph-name="Hexagon-Back" data-tags="Hexagon-Back" d="M545.92 703.78l-256-256.205 256-256.205 96 96.077-160 160.128 160 160.128zM768 897.28h-512l-256-449.28 256-449.28h512l256 449.28-256 449.28zM708.49 101.12h-392.98l-197.652 346.88 197.652 346.88h392.98l197.652-346.88-197.652-346.88z" />
<glyph unicode="&#xe63b;" glyph-name="Hexagon-Add" data-tags="Hexagon-Add" d="M768 897.28h-512l-256-449.28 256-449.28h512l256 449.28-256 449.28zM736.416 373.014h-149.64v-148.692h-149.64v148.692h-149.641v149.972h149.64v149.974h149.64v-149.974h149.64v-149.972z" />
<glyph unicode="&#xe63c;" glyph-name="Hexagon" data-tags="Hexagon" d="M768 897.28h-512l-256-449.28 256-449.28h512l256 449.28z" />
<glyph unicode="&#xe63d;" glyph-name="Follow" data-tags="Follow" d="M512 780.8c-282.771 0-512-332.8-512-332.8s229.229-332.8 512-332.8c282.77 0 512 332.8 512 332.8s-229.23 332.8-512 332.8zM788.518 376.837c-67.892-60.965-170.977-133.637-276.518-133.637-104.054 0-205.716 70.808-272.676 130.209-28.991 25.718-54.277 51.731-74.843 74.6 19.636 21.829 43.599 46.547 71 71.154 67.891 60.965 170.976 133.637 276.518 133.637 104.054 0 205.716-70.808 272.675-130.209 28.992-25.718 54.277-51.731 74.844-74.6-19.636-21.829-43.598-46.547-71-71.154zM665.6 448c0-84.831-68.769-153.6-153.6-153.6s-153.6 68.769-153.6 153.6c0 84.831 68.769 153.6 153.6 153.6s153.6-68.769 153.6-153.6z" />
<glyph unicode="&#xe63e;" glyph-name="Folder-Remove" data-tags="Folder-Remove" d="M558.531 245.76h-456.131l102.4 271.36h581.12l-25.078-66.455 48.748-48.746 72.165 72.165c34.028 87.419 39.845 96.029 39.845 123.676 0 21.208-17.193 38.4-38.4 38.4h-120.32v6.4c0 24.746-17.92 53.76-58.88 53.76h-407.040c-56 0-35.52 61.44-84.48 61.44h-174.080c-21.207 0-38.4-17.192-38.4-38.4v-524.8c0-28.278 22.922-51.2 51.2-51.2h499.832l54.948 54.948-47.45 47.452zM1024 310.564l-102.196 102.198-112.214-112.214-112.166 112.166-102.239-102.239 112.166-112.168-111.38-111.382 102.194-102.196 111.383 111.382 111.473-111.471 102.239 102.239-111.471 111.473z" />
<glyph unicode="&#xe63f;" glyph-name="Folder-Check" data-tags="Folder-Check" d="M344.069 245.76h-241.669l102.4 271.36h581.12l-51.823-137.332 181.261 181.262c4.946 14.853 6.243 23.662 6.243 36.71 0 21.208-17.193 38.4-38.4 38.4h-120.32v6.4c0 24.746-17.92 53.76-58.88 53.76h-407.040c-56 0-35.52 61.44-84.48 61.44h-174.080c-21.207 0-38.4-17.192-38.4-38.4v-524.8c0-28.278 22.922-51.2 51.2-51.2h395.27l-102.401 102.4zM926.72 471.040l-256-256-128 128-97.28-97.28 225.28-225.28 353.28 353.28z" />
<glyph unicode="&#xe640;" glyph-name="Folder-Add" data-tags="Folder-Add" d="M204.8 517.12h693.873c19.167 48.488 22.927 58.409 22.927 80.64 0 21.208-17.193 38.4-38.4 38.4h-120.32v6.4c0 24.746-17.92 53.76-58.88 53.76h-407.040c-56 0-35.52 61.44-84.48 61.44h-174.080c-21.207 0-38.4-17.192-38.4-38.4v-524.8c0-28.278 22.922-51.2 51.2-51.2h440.32v102.4h-389.12l102.4 271.36zM865.28 286.72v158.72h-144.64v-158.72h-157.44v-144.64h157.44v-157.44h144.64v157.44h158.72v144.64z" />
<glyph unicode="&#xe641;" glyph-name="Folder" data-tags="Folder" d="M985.6 633.6h-120.32v6.4c0 24.746-17.92 53.76-58.88 53.76h-509.44c-56 0-35.52 61.44-84.48 61.44h-174.080c-21.207 0-38.4-17.192-38.4-38.4v-524.8c0-28.278 22.922-51.2 51.2-51.2h775.68c22.925 0 42.327 15.067 48.856 35.84h0.146c0 0 8.186 19.080 60.087 166.851 77.329 211.743 88.031 214.203 88.031 251.709 0 21.208-17.193 38.4-38.4 38.4zM785.92 243.2h-683.52l102.4 271.36h683.52l-102.4-271.36z" />
<glyph unicode="&#xe642;" glyph-name="Filter" data-tags="Filter" d="M358.4 345.6h307.2v-307.2h-307.2v307.2zM0 857.6l352-409.6h320l352 409.6z" />
<glyph unicode="&#xe643;" glyph-name="Edit-Pencil" data-tags="Edit-Pencil" d="M372.364 75.636l-232.727 232.727 651.636 651.636 232.727-244.396zM279.388-17.454l-232.785 232.727-46.604-46.546v-232.727h232.96z" />
<glyph unicode="&#xe644;" glyph-name="Edit-Field" data-tags="Edit-Field" d="M576 352l-160 160 448 448 160-168.022zM768 352v-256h-608v608h288l160 160h-608v-928h928v576.598zM512 288l-160 160-32-32v-160h160z" />
<glyph unicode="&#xe645;" glyph-name="Download" data-tags="Download" d="M896 639.743l-120.051 120.095-168.049-168.133v368.296h-191.85v-368.296l-168.032 168.133-120.018-120.095 384-384.305zM160.25 128h703.45v-192h-703.45v192z" />
<glyph unicode="&#xe646;" glyph-name="Database" data-tags="Database" d="M830.78 544.090c-48.303-55.063-166.275-96.015-318.725-96.015s-270.057 40.952-318.62 96.015c0 0-31.565 1.030-31.565-32.005l-0.367-128.020c0-79.023 157.041-128.019 350.78-128.019 193.564 0.001 350.437 48.996 350.437 128.020v128.019c0 33.036-31.94 32.005-31.94 32.005zM830.78 224.042c-48.303-55.066-166.275-96.014-318.725-96.014s-270.057 40.948-318.62 96.014c0 0-31.565 1.032-31.565-32.005l-0.367-128.019c0-79.026 157.041-128.018 350.78-128.018 193.564 0 350.437 48.992 350.437 128.019v128.018c0 33.037-31.94 32.005-31.94 32.005zM861.853 831.109c0 1.28 0.006 0.731 0.006 0.854 0 82.106-168.705 128.037-350.29 128.037s-350.29-45.7-350.29-127.808c0-0.032 0-0.049 0-0.060v-127.661h0.562c2.175-81.866 169.768-127.881 349.998-127.881 180.227 0 347.82 46.015 349.992 127.881h0.888v126.638h-0.867zM511.84 736.119c-145.267 0-286.662 26.794-286.662 80.012s141.395 80.010 286.662 80.010 286.66-26.794 286.66-80.012-141.393-80.010-286.66-80.010z" />
<glyph unicode="&#xe647;" glyph-name="Connection-Med" data-tags="Connection-Med" d="M358.4 601.6h307.2v-665.6h-307.2v665.6zM0 243.2h307.2v-307.2h-307.2v307.2z" />
<glyph unicode="&#xe648;" glyph-name="Connection-Low" data-tags="Connection-Low" d="M6.4 243.2h307.2v-307.2h-307.2v307.2z" />
<glyph unicode="&#xe649;" glyph-name="Connection-High" data-tags="Connection-High" d="M716.8 960h307.2v-1024h-307.2v1024zM358.4 601.6h307.2v-665.6h-307.2v665.6zM0 243.2h307.2v-307.2h-307.2v307.2z" />
<glyph unicode="&#xe64a;" glyph-name="Cloud" data-tags="Cloud" d="M819.2 550.4c-35.114 0-68.16-8.844-97.044-24.415-24.553 130.487-139.096 229.215-276.716 229.215-155.525 0-281.6-126.077-281.6-281.6 0-8.776 0.422-17.453 1.207-26.025-3.78 0.279-7.596 0.425-11.447 0.425-84.829 0-153.6-68.769-153.6-153.6s68.771-153.6 153.6-153.6h665.6c113.105 0 204.8 91.692 204.8 204.8s-91.695 204.8-204.8 204.8z" />
<glyph unicode="&#xe64b;" glyph-name="Clock" data-tags="Clock" d="M512 960c-282.77 0-512-229.23-512-512s229.23-512 512-512 512 229.23 512 512-229.23 512-512 512zM765.427 194.573c-67.693-67.693-157.691-104.973-253.427-104.973-95.731 0-185.734 37.28-253.427 104.973-67.689 67.694-104.973 157.695-104.973 253.427s37.284 185.733 104.973 253.427c67.693 67.693 157.696 104.973 253.427 104.973 95.736 0 185.734-37.28 253.427-104.973 67.697-67.694 104.973-157.695 104.973-253.427s-37.276-185.733-104.973-253.427zM563.2 704h-153.6v-409.6h358.4v153.6h-204.8z" />
<glyph unicode="&#xe64c;" glyph-name="Checkmark" data-tags="Checkmark" d="M398.205 49.92l-398.205 398.373 170.641 170.822 227.434-227.529 455.012 454.493 170.913-170.55z" />
<glyph unicode="&#xe64d;" glyph-name="Chat-Message" data-tags="Chat-Message" d="M863.905 960h-703.683c-72.758 0-160.223-84.317-160.223-160.447v-511.511c0-76.214 87.465-159.858 160.223-159.858h159.378c0-53.668 0-126.561 0-180.439 0-9.463 13.354-15.945 20.178-8.53l236.257 188.969h287.869c72.758 0 160.095 83.644 160.095 159.858v511.511c0 76.129-87.337 160.447-160.095 160.447z" />
<glyph unicode="&#xe64e;" glyph-name="Card-Purchase" data-tags="Card-Purchase" d="M924.353 783.36h-824.518c-54.73 0-99.835-44.73-99.835-99.425v-472.367c0-54.694 45.105-98.927 99.835-98.927h824.518c54.732 0 99.647 44.233 99.647 98.929v472.367c0 54.694-44.915 99.424-99.647 99.424zM960.081 211.569c0-9.567-3.54-18.684-10.44-25.581-6.904-6.899-15.712-10.747-25.286-10.747h-824.52c-9.573 0-18.478 3.849-25.38 10.747-6.903 6.898-10.534 16.015-10.534 25.581v283.063h896.16v-283.063zM960.081 622.387h-896.16v61.548c0 9.567 3.633 18.934 10.534 25.83 6.903 6.898 15.808 10.995 25.38 10.995h824.518c9.573 0 18.382-4.097 25.286-10.995 6.9-6.897 10.44-16.264 10.44-25.83v-61.548zM127.84 302.996h127.84v-63.877h-127.84v63.877zM287.639 302.996h129.12v-63.877h-129.12v63.877zM448.719 302.996h127.841v-63.877h-127.841v63.877z" />
<glyph unicode="&#xe64f;" glyph-name="Bullet" data-tags="Bullet" d="M783.53 719.53l171.875-15.53-72.488-156.614 141.085-99.387-141.085-99.386 72.488-156.613-171.875-15.53-15.528-171.875-156.616 72.49-99.384-141.087-99.388 141.087-156.612-72.49-15.53 171.875-171.875 15.53 72.489 156.613-141.084 99.386 141.084 99.388-72.489 156.613 171.875 15.528 15.53 171.876 156.612-72.489 99.388 141.084 99.384-141.084 156.616 72.489z" />
<glyph unicode="&#xe650;" glyph-name="Badge-Sponsor" data-tags="Badge-Sponsor" d="M691.096 586.24h-89.496l-28.5 51.2h-36.78v15.36h1.28c14.080 0 34.35 7.497 45.038 16.66l140.325 120.28c10.693 9.162 19.437 28.179 19.437 42.259v128h-51.2v-145.189l-51.2-43.886v189.075h-257.28v-189.075l-51.2 43.886v145.189h-49.92v-128c0-14.080 8.75-33.097 19.438-42.26l140.325-120.28c10.374-8.892 29.751-16.195 43.758-16.62v-15.4h-35.996l-26.725-51.2h-89.49l-179.092-325.117 179.092-325.123h358.186l179.086 325.123-179.086 325.117zM477.978 602.88h68.401l8.552-16.64h-85.504l8.552 16.64zM627.2 203.768v-126.184l-115.2 45.882-115.2-45.882v126.184l-68.541 103.232 114.825 34.41 68.865 103.244 68.851-103.244 114.911-34.41-68.511-103.232z" />
<glyph unicode="&#xe651;" glyph-name="Arrow-Up-Open" data-tags="Arrow-Up-Open" d="M512.013 762.88l511.987-416.435-171.47-213.325-340.522 277.396-340.541-277.396-171.466 213.327z" />
<glyph unicode="&#xe652;" glyph-name="Arrow-Up-Dir" data-tags="Arrow-Up-Dir" d="M258.422 324.119c4.882-11.808 16.452-19.479 29.345-19.479h448.48c12.849 0 24.463 7.671 29.299 19.479 4.979 11.811 2.228 25.423-6.826 34.445l-224.289 223.5c-6.021 5.951-13.987 9.297-22.424 9.297-8.486 0-16.593-3.359-22.472-9.309l-224.239-223.484c-9.149-9.021-11.757-22.638-6.874-34.447z" />
<glyph unicode="&#xe653;" glyph-name="Arrow-Up-Big" data-tags="Arrow-Up-Big" d="M907.508 448.187l-395.508 395.321-395.508-395.321 123.38-123.539 172.817 172.954v-445.11h198.583v445.11l172.837-172.954z" />
<glyph unicode="&#xe654;" glyph-name="Arrow-Switch" data-tags="Arrow-Switch" d="M896 308.915c0 34.234-28.658 62.285-64 62.285h-640c-35.346 0-64-28.051-64-62.285 0-17.297 7.313-33.083 19.104-44.323l319.466-310.241c11.594-11.319 27.665-18.351 45.43-18.351 19.871 0 37.628 8.762 49.367 22.531l311.181 302.278c14.314 11.368 23.452 28.773 23.452 48.106zM128 586.642c0-34.331 28.654-61.842 64-61.842h640c35.342 0 64 27.511 64 61.842 0 17.341-7.314 32.861-19.105 44.137l-319.466 310.858c-11.594 11.351-27.665 18.363-45.428 18.363-19.873 0-37.628-8.806-49.367-22.61l-311.181-302.807c-14.317-11.401-23.452-28.556-23.452-47.941z" />
<glyph unicode="&#xe655;" glyph-name="Arrow-Right-Open" data-tags="Arrow-Right-Open" d="M336.337-64l511.023 512-511.023 512-159.697-160 351.331-352-351.331-352z" />
<glyph unicode="&#xe656;" glyph-name="Arrow-Right-Dir" data-tags="Arrow-Right-Dir" d="M388.118 701.578c-11.807-4.882-19.478-16.451-19.478-29.344v-448.481c0-12.847 7.671-24.462 19.478-29.298 11.812-4.979 25.425-2.228 34.446 6.826l223.5 224.289c5.951 6.021 9.297 13.987 9.297 22.424 0 8.486-3.357 16.593-9.309 22.472l-223.484 224.238c-9.021 9.149-22.638 11.757-34.449 6.874z" />
<glyph unicode="&#xe657;" glyph-name="Arrow-Right-Big" data-tags="Arrow-Right-Big" d="M512.187 52.492l395.321 395.508-395.321 395.508-123.539-123.38 172.954-172.817h-445.109v-198.583h445.109l-172.954-172.836z" />
<glyph unicode="&#xe658;" glyph-name="Arrow-Left-Open" data-tags="Arrow-Left-Open" d="M687.663 960l-511.023-512 511.023-512 159.697 160-351.332 352 351.332 352z" />
<glyph unicode="&#xe659;" glyph-name="Arrow-Left-Dir" data-tags="Arrow-Left-Dir" d="M635.881 194.422c11.808 4.882 19.479 16.452 19.479 29.345v448.48c0 12.847-7.671 24.462-19.479 29.298-11.811 4.979-25.423 2.228-34.445-6.826l-223.5-224.288c-5.951-6.021-9.297-13.987-9.297-22.424 0-8.488 3.359-16.593 9.309-22.472l223.484-224.239c9.021-9.149 22.638-11.757 34.447-6.874z" />
<glyph unicode="&#xe65a;" glyph-name="Arrow-Left-Big" data-tags="Arrow-Left-Big" d="M512.006 843.508l-395.513-395.508 395.513-395.508 123.597 123.577-173.035 173.011h444.941v197.596h-444.941l173.035 173.136z" />
<glyph unicode="&#xe65b;" glyph-name="Arrow-Down-Open" data-tags="Arrow-Down-Open" d="M511.987 133.12l-511.987 416.433 171.47 213.325 340.522-277.394 340.543 277.396 171.465-213.327z" />
<glyph unicode="&#xe65c;" glyph-name="Arrow-Down-Dir" data-tags="Arrow-Down-Dir" d="M765.578 571.881c-4.882 11.809-16.451 19.479-29.344 19.479h-448.481c-12.847 0-24.462-7.67-29.298-19.479-4.978-11.809-2.228-25.422 6.826-34.445l224.288-223.5c6.021-5.951 13.987-9.297 22.424-9.297 8.485 0 16.593 3.359 22.472 9.309l224.239 223.484c9.149 9.023 11.757 22.639 6.874 34.447z" />
<glyph unicode="&#xe65d;" glyph-name="Arrow-Down-Big" data-tags="Arrow-Down-Big" d="M116.492 448.006l395.508-395.513 395.508 395.513-123.576 123.599-173.011-173.035v444.939h-197.596v-444.939l-173.137 173.035z" />
<glyph unicode="&#xe65e;" glyph-name="Apps" data-tags="Apps" d="M768 897.28h-512l-256-449.28 256-449.28h512l256 449.28-256 449.28zM841.878 509.44h-292.911l-148.385 259.84h293.033l148.264-259.84zM291.823 701.604l145.362-254.907-144.543-253.737-145.322 255.040 144.503 253.604zM693.613 126.72h-291.393l144.896 254.72h291.429l-144.932-254.72z" />
<glyph unicode="&#xe65f;" glyph-name="Alert" data-tags="Alert" d="M1018.071 54.383l-384.471 650.322v-251.709l185.501-314.756h-185.501v-78.080h-243.2v78.080h-185.788l185.788 314.757v251.674l-384.616-650.267c-13.956-23.588-2.803-42.884 24.655-42.884h962.831c27.457 0 38.756 19.277 24.8 42.863zM583.176 723.2h39.282l-85.226 143.752c-13.956 23.587-36.794 23.675-50.748 0.088l-85.213-143.84h181.906zM576 530.13v129.070h-128v-337.92h128zM448 144.128v-26.368h128v128h-128z" />
<glyph unicode="&#xe660;" glyph-name="Add-on" data-tags="Add-on" d="M583.68 364.65l220.16 130.71 220.16-130.71v-256l-220.16-125.29-220.16 125.29zM0 704l440.32 256 440.32-256-440.32-256v-512l-440.32 256z" />
<glyph unicode="&#xe661;" glyph-name="Add" data-tags="Add" d="M672.44 608.246v351.754h-319.602v-351.754h-352.838v-319.775h352.838v-352.298l319.602-0.173v352.471h351.56v319.775z" />
<glyph unicode="&#xe662;" glyph-name="Cc-NC-US" data-tags="Cc-NC-US" d="M511.063 960c143.844 0 265.156-49.359 363.905-148.093 99.313-98.751 149.032-220.047 149.032-363.907 0-143.875-48.765-263.625-146.313-359.328-103.61-101.797-225.828-152.672-366.624-152.672-138.968 0-259.032 50.593-360.195 151.75-100.563 100.594-150.868 220.655-150.868 360.25 0 140.196 50.305 261.485 150.867 363.891 98.734 98.734 218.797 148.109 360.196 148.109zM115.203 586.047c-15.233-42.047-22.866-88.078-22.866-138.062 0-113.375 41.437-211.516 124.32-294.391 83.5-82.313 182.257-123.453 296.219-123.453 115.219 0 214.547 41.734 298.093 125.266 29.875 28.64 53.312 58.515 70.36 89.626l-192.891 85.938c-6.749-32.312-22.924-58.656-48.799-79.063-25.969-20.422-57.239-32.188-91.799-35.204v-78.463h-60.16v78.463c-56.32 0.579-108.253 20.984-155.168 61.234l70.525 71.313c33.508-31.078 71.68-46.61 114.353-46.61 17.672 0 32.797 3.937 45.311 11.891 12.485 7.907 18.767 21 18.767 39.313 0 12.813-4.571 23.156-13.727 31.086l-49.339 21.039-60.343 27.438-81.373 35.665-261.484 116.975zM512.906 868.579c-116.413 0-214.844-41.14-295.305-123.421-20.133-20.133-39.023-42.985-56.689-68.594l195.665-87.766c8.522 26.82 24.387 48.305 48.175 64.453 23.744 16.14 52.207 25.133 82.927 26.976v78.813h60.16v-78.813c47.36-2.454 89.518-18.289 127.923-47.539l-66.788-68.579c-28.687 20.118-57.925 30.164-87.8 30.164-15.859 0-30.042-3.054-42.509-9.14-12.5-6.094-18.756-16.461-18.756-31.086 0-4.274 1.514-8.531 4.561-12.797l109.718-49.39 82.28-36.562 262.374-117.015c8.547 35.969 12.813 72.516 12.813 109.704 0 117.649-40.844 216.687-122.501 297.172-81.076 82.278-179.858 123.42-296.248 123.42z" />
<glyph unicode="&#xe663;" glyph-name="Cc-NC-JP" data-tags="Cc-NC-JP" d="M875.328 811.539c-99.141 98.976-220.421 148.461-364 148.461-141.798 0-261.86-49.485-360.078-148.461-100.844-102.422-151.25-223.587-151.25-363.539 0-139.937 50.406-260.282 151.25-360.969 100.781-100.687 220.828-151.031 360.078-151.031 140.986 0 263.187 50.766 366.547 152.312 97.422 96.422 146.125 216.344 146.125 359.688 0 143.36-49.563 264.547-148.672 363.539zM811.219 154.875c-84.594-83.625-184.125-125.422-298.579-125.422-114.5 0-213.188 41.39-296.047 124.172-82.874 82.751-124.312 180.891-124.312 294.376 0 43.648 6.267 85.070 18.627 124.415l262.125-116.735h-58.152v-79.36h120.417l11.423-24.632v-38.088h-131.84v-80.64h131.84v-115.2h128v115.2h131.84v74.071l167.345-74.437c-17.125-27.828-37.874-53.75-62.685-77.719zM693.39 313.6h-118.67v38.088l5.874 11.909 112.796-49.997zM706.56 419.063v36.617h-79.281l130.001 239.36h-135.873l-89.517-198.121-47.515 21.103-81.797 177.018h-135.859l56.375-105.161-169.046 75.327c17.577 27.852 38.797 54.468 63.813 79.749 80.328 81.921 178.546 122.894 294.78 122.894 116.157 0 214.86-40.955 296.032-122.877 82.015-81.070 123.014-180.044 123.014-296.974 0-43.313-5.659-83.858-16.534-121.718l-208.594 92.783z" />
<glyph unicode="&#xe664;" glyph-name="Cc-NC-EU" data-tags="Cc-NC-EU" d="M875.281 811.539c-99.094 98.976-220.436 148.461-363.939 148.461-141.836 0-261.874-49.453-360.123-148.461-100.837-102.422-151.219-223.57-151.219-363.539 0-139.922 50.382-260.25 151.219-360.937 100.81-100.719 220.828-151.063 360.123-151.063 140.938 0 263.124 50.797 366.516 152.344 97.422 96.421 146.141 216.312 146.141 359.656-0.015 143.375-49.594 264.579-148.719 363.539zM811.187 154.875c-84.577-83.61-184.124-125.39-298.563-125.39-114.5 0-213.203 41.39-296.061 124.172-82.867 82.781-124.32 180.906-124.32 294.359 0 48 7.578 93.096 22.555 135.862l135.663-60.357h-9.821v-60.16h48.063c0-8.96-0.703-17.266-0.703-25.821v-15.139h-47.36v-60.16h55.743c7.727-46.080 24.883-82.386 48-111.511 48-63.438 125.148-97.724 209.148-97.724 54.875 0 104.516 16.247 133.702 32.544l-20.593 95.1c-18.001-9.422-58.266-22.271-97.673-22.271-42.876 0-83.124 12.923-110.563 43.781-12.842 14.564-22.281 34.481-28.28 60.081h186.344l264.782-117.284c-18.314-32.468-41.595-62.582-70.063-90.081zM478.188 422.961l-1.126 0.867 1.939-0.867h-0.813zM637.626 463.36h7.494v60.16h-144.964l-58.954 26.388c5.079 11.406 11.078 21.769 18.094 29.745 26.578 32.625 64.266 46.396 105.422 46.396 37.719 0 72.845-11.095 95.126-20.517l24 97.746c-30.875 13.679-76.28 25.69-128.562 25.69-80.562 0-149.14-32.558-197.999-87.401-10.852-12.531-20.259-26.592-28.79-41.459l-168.367 74.516c16.32 24.461 35.507 47.954 57.733 70.368 80.337 81.921 178.556 122.899 294.783 122.899 116.157 0 214.858-40.961 296.031-122.898 81.984-81.055 122.984-180.031 122.984-296.992 0-38.515-4.343-74.804-12.984-109.085l-281.046 124.444z" />
<glyph unicode="&#xe665;" glyph-name="Cc-CC" data-tags="Cc-CC" d="M506.508 533.001l-68.594-35.665c-7.328 15.219-16.306 25.907-26.962 32-10.671 6.079-20.577 9.14-29.725 9.14-45.697 0-68.58-30.164-68.58-90.516 0-27.423 5.789-49.344 17.359-65.814 11.587-16.468 28.657-24.704 51.22-24.704 29.868 0 50.892 14.641 63.094 43.891l63.080-32c-13.407-25-32-44.657-55.766-58.97-23.75-14.344-49.978-21.5-78.634-21.5-45.711 0-82.61 14.001-110.642 42.063-28.032 28.032-42.048 67.048-42.048 117.018 0 48.767 14.172 87.455 42.509 116.111 28.337 28.641 64.148 42.977 107.447 42.977 63.397 0.032 108.804-24.657 136.242-74.033zM801.825 533.001l-67.674-35.665c-7.296 15.219-16.328 25.907-26.985 32-10.688 6.079-20.906 9.14-30.609 9.14-45.704 0-68.595-30.164-68.595-90.516 0-27.423 5.797-49.344 17.375-65.814 11.579-16.468 28.626-24.704 51.22-24.704 29.829 0 50.876 14.641 63.048 43.891l64.001-32c-14.001-25-32.908-44.657-56.658-58.97-23.781-14.344-49.673-21.5-77.705-21.5-46.33 0-83.345 14.001-111.048 42.063-27.782 28.032-41.641 67.048-41.641 117.018 0 48.767 14.157 87.455 42.516 116.111 28.328 28.641 64.141 42.977 107.407 42.977 63.407 0.032 108.534-24.657 135.346-74.033zM511.094 960c143.218 0 264.499-49.679 363.873-149.039 99.314-98.749 149.033-219.726 149.033-362.961 0-143.265-48.781-263.313-146.313-360.219-102.999-101.188-225.219-151.781-366.593-151.781-138.391 0-258.454 50.281-360.227 150.875-100.562 100.547-150.867 220.906-150.867 361.11 0 139.57 50.305 260.562 150.867 362.961 99.345 99.375 219.421 149.055 360.227 149.055zM512.906 867.648c-116.413 0-214.844-41.148-295.305-123.438-83.524-84.741-125.265-183.475-125.265-296.21 0-114.001 41.437-212.109 124.32-294.406 82.898-82.907 181.632-124.328 296.219-124.328 113.969 0 213.344 41.734 298.062 125.251 80.47 78.015 120.689 175.828 120.689 293.485 0 117.007-40.844 215.758-122.5 296.211-81.064 82.319-179.814 123.436-296.22 123.436z" />
<glyph unicode="&#xe666;" glyph-name="Cc-BY" data-tags="Cc-BY" d="M650.24 575.086v-209.006h-58.88v-249.6h-158.72v249.6h-58.88v209.006c0 9.156 3.3 16.914 9.69 23.313 6.414 6.383 14.292 9.601 23.418 9.601h210.289c8.531 0 16.261-3.203 22.949-9.601 6.671-6.399 10.135-14.172 10.135-23.313zM440.672 706.734c0 48.133 23.766 72.227 71.328 72.227s71.313-24.063 71.313-72.227c0-47.532-23.781-71.313-71.313-71.313s-71.328 23.781-71.328 71.313zM511.094 960c143.218 0 264.499-49.679 363.873-149.039 99.314-98.749 149.033-219.726 149.033-362.961 0-143.265-48.781-263.313-146.313-360.219-102.999-101.188-225.219-151.781-366.593-151.781-138.391 0-258.454 50.281-360.227 150.875-100.562 100.547-150.867 220.906-150.867 361.11 0 139.57 50.305 260.562 150.867 362.961 99.345 99.375 219.421 149.055 360.227 149.055zM512.906 867.648c-116.413 0-214.844-41.148-295.305-123.438-83.524-84.741-125.265-183.475-125.265-296.21 0-114.001 41.437-212.109 124.32-294.406 82.898-82.907 181.632-124.328 296.219-124.328 113.969 0 213.344 41.734 298.062 125.251 80.47 78.015 120.689 175.828 120.689 293.485 0 117.007-40.844 215.758-122.5 296.211-81.064 82.319-179.814 123.436-296.22 123.436z" />
<glyph unicode="&#xe667;" glyph-name="Cc-SA" data-tags="Cc-SA" d="M511.096 960c143.217 0 264.498-49.679 363.872-149.039 99.313-98.749 149.032-219.726 149.032-362.961 0-143.265-48.781-263.313-146.313-360.219-102.999-101.188-225.219-151.781-366.591-151.781-138.394 0-258.452 50.281-360.221 150.875-100.562 100.547-150.875 220.906-150.875 361.11 0 139.57 50.313 260.562 150.875 362.961 99.343 99.375 219.406 149.055 360.221 149.055zM512.909 867.648c-116.408 0-214.847-41.148-295.315-123.437-83.514-84.742-125.249-183.476-125.249-296.211 0-114.001 41.437-212.109 124.312-294.406 82.907-82.907 181.626-124.328 296.219-124.328 113.969 0 213.344 41.734 298.062 125.251 80.468 78.016 120.691 175.828 120.691 293.485 0 117.007-40.847 215.758-122.504 296.211-81.062 82.318-179.813 123.436-296.216 123.436zM284.344 520.242c9.736 62.781 35.016 111.391 75.875 145.82 40.813 34.437 90.483 51.648 149.016 51.648 80.421 0 144.453-25.921 192-77.695 47.53-51.804 71.313-118.258 71.313-199.313 0-78.641-24.687-144-74.033-196.093-49.421-52.093-113.39-78.172-192.046-78.172-57.892 0-107.875 17.056-149.921 51.821-42.079 34.751-67.346 83.822-75.891 147.822h128.937c3.050-61.44 40.531-92.978 112.468-92.978 35.937 0 64.906 15.692 86.847 46.769 21.966 31.078 32.951 72.62 32.951 124.408 0 54.258-10.079 95.575-30.172 123.927-20.125 28.337-49.047 42.237-86.875 42.237-68.278 0-106.673-29.324-115.187-90.764h37.471l-101.471-101.203-101.485 101.637 40.204 0.128z" />
<glyph unicode="&#xe668;" glyph-name="Cc-REMIX" data-tags="Cc-REMIX" d="M511.096 957.902c143.217 0 264.498-49.679 363.872-149.039 99.313-98.749 149.032-219.726 149.032-362.961 0-143.265-48.781-263.313-146.313-360.219-103-101.188-225.219-151.781-366.591-151.781-138.394 0-258.452 50.281-360.221 150.875-100.562 100.547-150.875 220.906-150.875 361.11 0 139.57 50.313 260.562 150.875 362.961 99.343 99.375 219.406 149.055 360.221 149.055zM512.909 865.55c-116.408 0-214.847-41.148-295.315-123.437-83.514-84.742-125.251-183.476-125.251-296.211 0-114.001 41.437-212.109 124.312-294.406 82.907-82.907 181.626-124.328 296.219-124.328 113.969 0 213.344 41.734 298.062 125.251 80.468 78.016 120.691 175.828 120.691 293.485 0 117.007-40.847 215.758-122.504 296.211-81.061 82.319-179.812 123.436-296.215 123.436zM846.342 436.754l9.978-4.579v-144.445l-8.973-4.547-124.236-53.032-5.44-1.843-6.382 1.812-277.015 114.298-132.284-54.86-130.47 56.687v131.656l122.513 51.219-0.913 0.906v144.468l138.615 61.251 313.225-129.829v-127.086l101.382-42.077zM701.44 268.558v89.842h-1.28v4.3l-234.24 96v-93.266l234.24-96.937v0.937l1.28-0.876zM716.781 387.387l82.316 33.828-75.892 32-80.468-33.828 74.045-32zM824.32 308.746v88.68l-90.88-38.399v-89.594l90.88 39.313z" />
<glyph unicode="&#xe669;" glyph-name="Cc-ND" data-tags="Cc-ND" d="M511.094 960c143.219 0 264.5-49.679 363.875-149.039 99.313-98.749 149.032-219.726 149.032-362.961 0-143.265-48.781-263.313-146.313-360.219-102.999-101.188-225.219-151.781-366.593-151.781-138.391 0-258.454 50.281-360.219 150.875-100.562 100.547-150.875 220.906-150.875 361.11 0 139.57 50.313 260.562 150.875 362.961 99.343 99.375 219.406 149.055 360.219 149.055zM512.906 867.648c-116.406 0-214.844-41.148-295.313-123.437-83.516-84.742-125.249-183.476-125.249-296.211 0-114.001 41.437-212.109 124.311-294.406 82.907-82.907 181.624-124.328 296.22-124.328 113.969 0 213.344 41.734 298.062 125.251 80.468 78.016 120.687 175.828 120.687 293.485 0 117.007-40.844 215.758-122.5 296.211-81.062 82.318-179.813 123.436-296.219 123.436zM705.28 568.32v-87.040h-371.2v87.040h371.2zM705.28 404.48v-88.32h-371.2v88.32h371.2z" />
<glyph unicode="&#xe66a;" glyph-name="Cc-ABOUT" data-tags="Cc-ABOUT" d="M546.468 161.222c-16.17-13.609-34.468-20.422-54.893-20.422-20.428 0-38.725 6.813-54.897 20.422-16.17 13.618-24.256 32.888-24.256 57.862 0 24.965 8.086 44.252 24.256 57.87 16.172 13.61 34.469 20.424 54.897 20.424 20.425 0 38.723-6.813 54.893-20.424 16.173-13.618 24.257-32.906 24.257-57.87 0-24.974-8.084-44.244-24.257-57.862zM679.237 561.603c-4.827-13.343-10.93-25.679-18.299-37.018-7.382-11.356-15.891-22.126-25.533-32.338-9.655-10.212-19.014-19.864-28.084-28.931-6.807-6.813-13.91-14.049-21.276-21.705-7.38-7.657-14.042-15.744-19.999-24.252-5.96-8.508-10.89-17.446-14.853-26.806-3.974-9.359-5.912-18.867-5.912-28.509 0-2.271 0-5.669 0-10.212s0.191-8.794 0.763-12.634h-112.343c-1.143 6.4-1.847 12.416-2.127 19.514-0.292 7.090-0.425 13.367-0.425 18.476 0 15.872 1.98 30.298 5.957 43.064 3.963 12.767 9.215 24.719 15.745 35.782 6.516 11.063 14.044 21.431 22.552 31.084 8.509 9.636 17.303 19.008 26.383 28.093 13.046 13.041 24.961 25.957 35.745 38.723 10.772 12.767 16.172 27.368 16.172 43.825 0 13.618-5.253 25.24-15.744 34.894-10.506 9.644-25.958 14.469-46.383 14.469-20.428 0-39.722-2.555-57.875-7.656-18.163-5.11-38.298-13.343-60.428-24.681l-35.743 96.161c22.127 14.17 48.218 25.103 78.298 32.759 30.068 7.665 59.575 11.493 88.512 11.493 36.303 0 66.237-4.826 89.787-14.469 23.539-9.652 42.13-21.852 55.748-36.596 13.618-14.753 23.113-30.926 28.511-48.502 5.385-17.592 8.083-34.333 8.083-50.207 0.003-15.889-2.418-30.504-7.231-43.822zM511.095 960c143.218 0 264.499-49.679 363.872-149.039 99.314-98.749 149.033-219.726 149.033-362.961 0-143.265-48.781-263.313-146.313-360.219-102.999-101.188-225.219-151.781-366.592-151.781-138.392 0-258.455 50.281-360.228 150.875-100.562 100.547-150.867 220.906-150.867 361.11 0 139.57 50.305 260.562 150.867 362.961 99.345 99.375 219.421 149.055 360.228 149.055zM512.906 867.648c-116.413 0-214.844-41.148-295.304-123.438-83.525-84.741-125.266-183.475-125.266-296.21 0-114.001 41.437-212.109 124.32-294.406 82.899-82.907 181.632-124.328 296.219-124.328 113.969 0 213.344 41.734 298.062 125.251 80.468 78.015 120.687 175.828 120.687 293.485 0 117.007-40.844 215.758-122.5 296.211-81.062 82.319-179.813 123.436-296.219 123.436z" />
<glyph unicode="&#xe66b;" glyph-name="Social-Youtube" data-tags="Social-Youtube" d="M448.568 368.306l165.988 86.015-166.016 86.614zM768 897.28h-512l-256-449.28 256-449.28h512l256 449.28-256 449.28zM813.064 325.352c0 0-6.001-42.339-24.421-60.984-23.365-24.47-49.556-24.59-61.562-26.025-85.978-6.213-215.081-6.409-215.081-6.409s-159.741 1.459-208.895 6.173c-13.673 2.564-44.374 1.792-67.744 26.262-18.422 18.644-24.419 60.984-24.419 60.984s-6.143 49.719-6.143 99.437v46.614c0 49.718 6.143 99.438 6.143 99.438s5.997 42.339 24.419 60.984c23.37 24.472 49.548 24.593 61.56 26.025 85.979 6.216 214.943 6.216 214.943 6.216h0.271c0 0 128.968 0 214.945-6.216 12.005-1.432 38.196-1.553 61.562-26.025 18.42-18.644 24.421-60.984 24.421-60.984s6.136-49.72 6.136-99.438v-46.614c0-49.718-6.136-99.438-6.136-99.438z" />
<glyph unicode="&#xe66c;" glyph-name="Social-Twitter" data-tags="Social-Twitter" d="M768 897.28h-512l-256-449.28 256-449.28h512l256 449.28-256 449.28zM778.304 572.165c-24.163-23.749-25.459-26.333-25.459-46.208 0-30.624-14.693-94.52-29.353-129.457-27.194-65.605-85.445-133.375-143.729-167.478-82.004-47.894-191.183-59.978-283.14-31.937-30.628 9.5-83.279 33.665-83.279 37.998 0 1.293 15.955 3.002 35.383 3.439 40.561 0.854 81.14 12.084 115.67 31.937l23.311 13.811-26.771 9.062c-37.985 12.937-72.073 42.728-80.69 70.792-2.596 9.062-1.737 9.5 22.426 9.5l25.048 0.438-21.165 9.916c-25.036 12.521-47.905 33.667-59.122 55.206-8.188 15.561-18.556 54.811-15.546 57.855 0.861 1.29 9.925-1.293 20.279-4.751 29.783-10.792 33.681-8.207 16.398 9.917-32.371 32.832-42.276 81.582-26.751 127.79l7.342 20.707 28.495-28.041c58.259-56.54 126.897-90.207 205.427-100.165l21.594-2.583-1.294 21.166c-3.882 54.792 30.205 104.874 84.164 124.291 19.858 6.917 53.509 7.791 75.52 1.709 8.652-2.583 25.047-11.209 36.685-18.958l21.156-14.249 23.311 7.334c12.942 3.875 30.205 10.373 37.971 14.665 7.337 3.876 13.809 6.042 13.809 4.751 0-7.334-15.955-32.375-29.343-46.166-18.131-19.457-12.954-21.166 23.722-8.207 22.016 7.333 22.459 7.333 18.154-0.876-2.609-4.293-15.981-19.42-30.225-33.21z" />
<glyph unicode="&#xe66d;" glyph-name="Social-Twitch" data-tags="Social-Twitch" d="M337.92 642.56v-337.92h103.68v-69.454l70.4 69.454h127.978l81.942 81.797v256.123h-384zM512 409.6h-46.080v139.52h46.080v-139.52zM640 409.6h-46.080v139.52h46.080v-139.52zM768 897.28h-512l-256-449.28 256-449.28h512l256 449.28-256 449.28zM768 363.124l-139.66-139.124h-104.721l-69.791-70.4h-69.829v70.4h-128v371.917l34.921 92.723h477.079v-325.516z" />
<glyph unicode="&#xe66e;" glyph-name="Social-Profile" data-tags="Social-Profile" d="M768 897.28h-512l-256-449.28 256-449.28h512l256 449.28-256 449.28zM435.665 778.4h152.671l76.37-131.039-76.37-131.041h-152.671l-76.335 131.041 76.335 131.039zM665.414 106.4h-306.872l-102.542 170.799 102.586 170.801h306.872l102.542-170.801-102.586-170.799z" />
<glyph unicode="&#xe66f;" glyph-name="Social-Facebook" data-tags="Social-Facebook" d="M767.973 897.28h-512.017l-255.956-449.28 256.027-449.28h208.613v320.914h-79.36v132.218h79.36v80.223c0 108.287 44.735 172.658 171.908 172.658h105.852v-132.216h-66.144c-49.508 0-52.78-19.048-52.78-53.69l-0.21-66.975h119.894l-14.001-132.216h-105.8v-320.915h144.667l255.973 449.28-256.027 449.28z" />
<glyph unicode="&#xe670;" glyph-name="Social-Group" data-tags="Social-Group" d="M768 897.28h-512l-256-449.28 256-449.28h512l256 449.28-256 449.28zM634.976 789.599h95.375l47.748-80.079-47.748-80.079h-95.375l-47.748 80.079 47.748 80.079zM569.229 618.24l57.294-95.759-57.294-95.759h-114.458l-57.268 95.759 57.268 95.759h114.458zM293.649 789.599h95.375l47.748-79.53-47.748-79.51h-95.375l-47.748 79.51 47.748 79.53zM224.105 362.88l-64.102 106.4 64.102 106.4h131.686l-13.58-23.126-18.796-32.081 18.796-32.216 36.707-61.535h-17.667l-18.751-33.71-18.481-30.132h-99.916zM703.996 234.619l-76.938-128.218h-230.141l-76.913 128.218 0.031 0.052-0.031 0.052 76.808 128.156h230.396l76.79-128.156-0.031-0.052 0.029-0.052zM699.726 362.88l-18.209 30.13-18.751 33.71h-17.911l36.96 62.578 18.787 31.643-18.812 31.606-13.58 23.132h131.704l64.084-106.4-64.086-106.399h-100.187z" />
<glyph unicode="&#xe671;" glyph-name="Social-Code" data-tags="Social-Code" d="M768 897.28h-512l-256-449.28 256-449.28h512l256 449.28-256 449.28zM380.195 394.313l-13.353-52.979-149.266 79.583v54.167l149.253 79.583 13.443-52.979-109.172-53.709 109.096-53.665zM480.269 277.76h-53.603l117.791 340.48h52.877l-117.065-340.48zM657.307 341.334l-13.51 52.979 109.147 53.665-109.121 53.709 13.48 52.979 149.393-79.583v-54.167l-149.388-79.583z" />
<glyph unicode="&#xe672;" glyph-name="Window-Windowed" data-tags="Window-Windowed" d="M878.001 920.616h-592.465v-354.551h-246.152v-590.68h638.031v268.8h307.2v676.431h-106.615zM519.876 132.925h-322.953v273.811h322.954v-273.811zM827.077 401.725h-149.661v164.339h-234.34v197.011h384.001v-361.35z" />
<glyph unicode="&#xe673;" glyph-name="Window-Minimize" data-tags="Window-Minimize" d="M39.383 211.693h945.233v-236.307h-945.233v236.307z" />
<glyph unicode="&#xe674;" glyph-name="Window-Maximize" data-tags="Window-Maximize" d="M196.923 605.463h630.153v-472.538h-630.153v472.538zM877.924 920.617h-838.541v-945.233h945.233v945.233h-106.692z" />
<glyph unicode="&#xe675;" glyph-name="Window-Close" data-tags="Window-Close" d="M1024 809.233l-150.848 150.767-361.152-361.152-361.155 361.152-150.77-150.767 361.076-361.155-361.152-361.153 150.845-150.925 361.155 361.233 361.152-361.233 150.848 150.925-361.155 361.153z" />
<glyph unicode="&#xe676;" glyph-name="Reload" data-tags="Reload_Reload" d="M710.936 114.071h-378.309l-190.273 333.929 190.273 333.93h378.309l74.916-131.479-128.55 34.314-26.003-96.669 309.498-82.612 83.204 309.339-96.719 25.818-34.454-128.101-110.154 193.324h-521.782l-260.891-457.862 260.891-457.862h521.782l158.756 278.62h-142.353z" />
<glyph unicode="&#xe677;" glyph-name="Display-List" data-tags="Display-List" d="M0 256h179.2v-179.2h-179.2v179.2zM256 256h768v-179.2h-768v179.2zM0 537.6h179.2v-179.2h-179.2v179.2zM256 537.6h768v-179.2h-768v179.2zM0 819.2h179.2v-179.2h-179.2v179.2zM256 819.2h768v-179.2h-768v179.2z" />
<glyph unicode="&#xe678;" glyph-name="Notification-X" data-tags="Notification-X" d="M207 349c2.001 4.645 3.012 9.667 3.012 15v276c0 5.312-1.011 10.333-3.012 15-2.011 4.645-4.845 8.667-8.489 12-3.677 3.313-7.855 6.001-12.5 8-4.678 2.001-9.356 3-14.022 3-24-0.687-46.488-5.667-67.5-15-20.988-9.334-39.167-22.001-54.478-38.001-15.345-16-27.5-34.5-36.511-55.5-9-21-13.5-43.501-13.5-67.501s4.5-46.688 13.5-68.020c9.011-21.334 21.167-39.813 36.511-55.479 15.311-15.688 33.489-28.355 54.478-38.001 21.011-9.687 43.5-14.833 67.5-15.5 4.667 0 9.345 1 14.022 3 4.644 1.979 8.822 4.833 12.5 8.5 3.644 3.666 6.477 7.832 8.489 12.499zM1024 651.021v213.979c0 3.333-0.489 6.313-1.489 8.979-1.011 2.666-2.5 5.020-4.5 7.021-2.011 2.001-4.356 3.645-7 5-2.689 1.312-5.678 2.001-9 2.001h-3.5c-1.011 0-1.866-0.166-2.5-0.5-0.689-0.355-1.344-0.5-2.001-0.5-16-4-45.856-17.167-89.522-39.5s-93.477-46.001-149.477-71-114.689-47.667-176-68c-61.356-20.355-117.678-30.5-169-30.5h-128c-5.367 0-10.177-0.854-14.511-2.5-4.356-1.687-8.178-4.187-11.5-7.5-3.356-3.355-5.844-7.167-7.511-11.5s-2.5-8.833-2.5-13.5v-282.001c0-4.667 0.833-9.334 2.5-14.001 1.667-4.687 4.156-8.5 7.511-11.5 3.322-3 7.145-5.521 11.5-7.5 4.333-2.001 9.144-3 14.511-3h97.001c5.311 0 10.488-0.166 15.489-0.5 5.011-0.333 10.001-0.854 14.989-1.5 5.023-0.667 10.156-1.020 15.511-1.020v-277.979c0-5.334 1.011-10.188 3.012-14.5 1.978-4.334 4.477-8.187 7.489-11.521 3.012-3.313 6.656-5.812 11.012-7.479 4.323-1.667 9.144-2.5 14.478-2.5h102.022c5.311 0 10.156 0.833 14.478 2.5 4.334 1.667 8 4.166 11.012 7.479 3.012 3.333 5.512 7.187 7.511 11.521 1.978 4.312 2.989 9.166 2.989 14.5v240c10.001 0 32.511-7.167 67.5-21.5 35-14.354 73-30.833 114.001-49.5s80.489-37.167 118.511-55.5c37.989-18.333 64.978-31.5 80.978-39.5 3.356-1.354 6.022-2.5 8.023-3.5 1.978-1 4.133-2.001 6.488-3 2.322-1 4.5-1.5 6.5-1.5 2.011 0 3.822 0.146 5.512 0.5 1.633 0.333 3.323 1 4.988 2.001 1.667 1 3.155 2.001 4.5 3 1.322 1 2.322 2.167 3.012 3.5 0.634 0.667 1.322 1.646 1.978 2.98 0.667 1.354 1.178 2.52 1.522 3.52 0.311 1 0.634 2.167 1 3.5 0.323 1.334 0.489 2.646 0.489 4v223.603l-51.197 51.208-160-160-96 96 160 160-160 160 96 96 160-160 51.191 51.209z" />
<glyph unicode="&#xe679;" glyph-name="Rockets" data-tags="Rockets" d="M847.45 783.447c0 0-158.895 0-264.826-79.447-7.14-5.362-115.855-89.5-158.9-132.415-26.481 0-79.444 0-132.415-26.482-185.869-92.931-291.309-264.828-291.309-264.828 117.39 88.137 169.734 67.638 211.866 52.965-30.26-41.155-26.484-52.965-26.484-52.965s-0.404-51.827 52.965-105.93c54.365-53.345 105.935-52.968 105.935-52.968s12.41-3.845 52.965 26.482c14.845-42.275 35.68-94.103-52.965-211.86 0 0 171.86 105.377 264.826 291.31 26.484 52.965 26.484 105.93 26.484 132.412 43.38 43.278 127.066 151.761 132.41 158.898 79.448 105.932 79.448 264.828 79.448 264.828zM0-64c38.045 6.602 354.925 63.328 211.866 211.86-148.71 143.017-205.395-174.068-211.866-211.86zM423.725 960c0 0-79.444 0-132.415-39.725-3.565-2.691-57.92-44.758-79.444-66.208-13.24 0-39.725 0-66.211-13.24-92.934-46.467-145.655-132.415-145.655-132.415 58.71 44.070 84.876 33.81 105.935 26.482-15.116-20.585-13.245-26.482-13.245-26.482s-0.215-25.912 26.484-52.965c27.19-26.655 52.965-26.482 52.965-26.482s6.214-1.933 26.484 13.24c7.43-21.138 17.825-47.050-26.484-105.93 0 0 85.93 52.708 132.415 145.655 13.24 26.482 13.24 52.965 13.24 66.208 21.7 21.62 63.546 75.88 66.205 79.447 39.725 52.965 39.725 132.415 39.725 132.415zM0 536.275c19.020 3.31 177.469 31.672 105.935 105.93-74.365 71.5-102.701-87.032-105.935-105.93zM1024 359.722c0 0-79.444 0-132.41-39.722-3.57-2.691-57.935-44.76-79.45-66.208-13.24 0-39.725 0-66.205-13.243-92.934-46.465-145.655-132.412-145.655-132.412 58.705 44.068 84.86 33.81 105.93 26.482-15.105-20.588-13.24-26.482-13.24-26.482s-0.21-25.915 26.481-52.965c27.19-26.655 52.965-26.482 52.965-26.482s6.211-1.933 26.484 13.24c7.43-21.138 17.825-47.053-26.484-105.93 0 0 85.93 52.705 132.415 145.655 13.24 26.482 13.24 52.965 13.24 66.205 21.69 21.623 63.555 75.88 66.211 79.45 39.718 52.965 39.718 132.412 39.718 132.412zM600.28-64c19.014 3.31 177.466 31.672 105.93 105.93-74.365 71.5-102.691-87.035-105.93-105.93z" />
</font>
</defs>
</svg>
